<?xml version="1.0" encoding="utf-8"?>
<!-- Generator: Adobe Illustrator 27.3.1, SVG Export Plug-In . SVG Version: 6.00 Build 0)  -->
<svg version="1.1" id="Ebene_1" xmlns="http://www.w3.org/2000/svg" xmlns:xlink="http://www.w3.org/1999/xlink" x="0px" y="0px"
	 viewBox="0 0 479.4 237.2" style="enable-background:new 0 0 479.4 237.2;" xml:space="preserve">
<g>
	<path d="M61.1,26.8L62,29h-0.3l0.3,1.7c-0.2,0.4-0.3,0.6-0.3,0.8c0,0.3,0.2,0.8,0.6,1.4l-0.6,0.3l0.3,1.4v0.3l-1.4-0.3h-0.3
		l1.4,1.7h-0.6l0.3,0.6h-0.3C60.4,36.5,60,36,60,35.4h-0.3v1.1L58.9,36h-0.6l0.3,0.6c1.4,0,2.3,0.7,2.8,2.2l-0.3,0.6
		c-0.2,0-0.3-0.1-0.3-0.3l-0.6,0.3c0,0.6,0.4,0.8,1.1,0.8V41c-0.5,0-0.7,0.4-0.8,1.1c0.2,0,0.3,0.1,0.3,0.3v0.8
		c-0.4,0.4-0.6,1-0.6,1.7l-0.6-0.3h-0.3c0.3,0.4,0.6,1.3,0.8,2.5c-0.2,0.6-0.4,0.8-0.6,0.8c0,0.7,0.1,1.2,0.3,1.4h-0.3l0.6,1.9
		c0,0.2-0.2,0.3-0.6,0.3L60,53l-1.4,0.3v0.6H60c-0.2,0.4-0.3,0.6-0.3,0.8l-0.6-0.3h-0.3v0.8c0.6,0,0.8,0.6,0.8,1.9H59v0.3
		c0,0.4,0.2,0.6,0.6,0.6c0,0.6-0.5,1.5-1.4,2.5c0.6,0.7,0.8,1.4,0.8,1.9v0.8h-0.6l0.3,1.4c-0.6,0-0.8,0.3-0.8,0.8
		c0.4,0.2,0.6,0.3,0.8,0.3c0,0.4-0.2,0.6-0.6,0.6c0,0.2,0.1,0.5,0.3,0.8l-0.3,0.6c0.2,0.3,0.3,1.5,0.6,3.3l-0.6,0.3l0.3,0.6
		c0,0.4-0.1,0.8-0.3,1.1c0.2,0.4,0.3,0.6,0.3,0.8c0,0.6-0.3,1.3-0.8,2.2c0.4,0,0.6,0.2,0.6,0.6l-0.3,0.6l0.6,0.3
		c0,0.5-0.5,0.9-1.4,1.1l0.8,1.7h-0.6c0,0.5,0.2,1.3,0.6,2.5v1.4h-0.3v-0.8L56.5,84c0,0.3,0.4,0.6,1.1,0.8c0,0.2-0.1,0.3-0.3,0.3
		c0.4,1.2,0.6,2,0.6,2.5v0.8h-0.6V89h0.6v0.3l-0.3,1.4c-0.2,0-0.3-0.1-0.3-0.3l-0.6,0.3c0,0.4,0.2,0.6,0.6,0.6L57,91.9l0.3,0.6
		l-0.6,0.3l0.3,1.4l-0.3,0.6c0.4,0,0.6,0.2,0.6,0.6S57.1,96,56.7,96c0,0.2,0.1,0.5,0.3,0.8h-1.1v1.1h0.3l0.6-0.3
		c0,0.8,0.1,1.4,0.3,1.7l-0.3,0.6c0,0.2,0.1,0.5,0.3,0.8c-0.3,0-0.5,0.2-0.6,0.6l0.3,0.6c-0.2,0-0.3,0.3-0.3,0.8l-0.8-0.6v0.3
		c0,0.4,0.2,0.6,0.6,0.6c0,0.2-0.1,0.5-0.3,0.8l0.3,0.6l-1.4,0.3h-0.8v0.8h0.3l0.6-0.3c0,0.2,0.3,0.4,0.8,0.6c0,0.4-0.2,0.6-0.6,0.6
		c0,0.2,0.1,0.3,0.3,0.3c0,0.3-0.2,0.8-0.6,1.4c0,0.2,0.4,0.3,1.1,0.3v0.6c0,0.6-0.5,0.8-1.4,0.8c0,0.2,0.1,0.3,0.3,0.3
		c0,0.6-0.3,0.8-0.8,0.8v0.3c0.9,0,1.5,0.3,1.7,0.8v0.8c-0.5,0-0.7,0.4-0.8,1.1c0.2,0,0.3,0.1,0.3,0.3h-0.6v1.4h0.6v0.8
		c0,0.2,0.2,0.3,0.6,0.3v0.3c-0.2,0-0.5,0.1-0.8,0.3v1.7h0.3l0.6-0.3c0,0.7,0.2,1.1,0.6,1.1l-0.3,0.6c0.8,0,1.4,0.1,1.7,0.3
		c0.9-0.4,1.7-0.6,2.2-0.6c0.9,0,1.5,0.3,1.7,0.8c0.4-0.3,1.4-0.6,2.8-0.8v0.3c0.2,0,0.5-0.1,0.8-0.3c0.5,0,1.6,0.3,3.3,0.8h0.3
		l0.6-0.3v0.3L70,120c2,0,3.7,0.4,5,1.1v-0.3l1.4,0.3c0-0.6,0.3-0.8,0.8-0.8c0,0.2,0.3,0.4,0.8,0.6c0.3-0.2,0.7-0.3,1.1-0.3v1.9
		l-0.6-0.3h-0.3c0,0.6,0.3,0.8,0.8,0.8v0.3h-0.3v0.8c0,0.6-0.3,0.8-0.8,0.8c0,0.7,0.2,1.1,0.6,1.1v0.6h-0.3l-1.1-0.8v0.3
		c0.7,0.9,1.1,1.5,1.1,1.7c-0.2,0-0.3,0.2-0.3,0.6l-1.9-0.8c-0.6,0-0.8,0.2-0.8,0.6c-0.2,0-0.3-0.1-0.3-0.3c-0.3,0-0.8,0.2-1.4,0.6
		c0-0.2-0.9-0.4-2.8-0.6c0,0.2-0.5,0.4-1.4,0.6c0-0.6-0.6-1.1-1.9-1.4l-0.6,0.3c-0.9-0.2-1.4-0.5-1.4-0.8c-0.2,0-0.3,0.1-0.3,0.3
		c-0.3,0-0.5-0.2-0.6-0.6c0.3-0.6,0.6-0.8,0.8-0.8c0-0.3-0.2-0.5-0.6-0.6h-0.3c0,0.4-0.1,0.6-0.3,0.6v0.8c-1.6,1-3.1,1.6-4.4,1.7
		c-0.5,0-1-0.4-1.7-1.1h-0.3v0.6c-0.2,0-0.5-0.1-0.8-0.3c-0.1,0-0.7,0.1-1.7,0.3c-0.5,0-1.1-0.2-1.7-0.6c-0.3,0-0.6,0.5-0.8,1.4
		l-0.6-0.3c-0.3,0-0.5,0.2-0.6,0.6c-1-0.3-1.8-0.6-2.2-0.8c-1,0.9-1.6,1.4-1.9,1.4c-0.4-0.1-1.1-0.9-2.2-2.5h-0.3l0.6,0.8H45v0.3
		c0.4,0.7,0.8,1.1,1.4,1.1v0.3h-0.3c-1,0-1.8-0.3-2.5-0.8v1.7c-0.2,0-0.3-0.1-0.3-0.3l-2.5,0.6c0-0.2-0.1-0.3-0.3-0.3v-0.8l-0.3-0.6
		h0.6V128l-0.3-1.7c0.4-0.5,0.6-0.8,0.6-1.1c0.3,0,1.1,0.9,2.2,2.8h0.3v-1.1c-0.3-0.6-0.6-0.8-0.8-0.8l0.3-0.6v-0.3h-0.3l-0.6,0.3
		l-1.4-1.9V123c0.6,0,0.8-0.2,0.8-0.6l-0.6-0.8v-0.8c0.2,0,0.3,0.1,0.3,0.3l0.6-0.3c-0.7-0.8-1.1-1.6-1.1-2.2v-1.1h0.6v-0.3
		c0-0.3-0.2-0.5-0.6-0.6l0.3-0.6l-0.3-1.4h0.3l0.6,0.3c0-0.2,0.1-0.3,0.3-0.3c0-0.4-0.3-0.6-0.8-0.6v-1c0.3,0,0.8,0.2,1.4,0.6h0.3
		V113c0-0.4-0.5-0.6-1.4-0.6c0-0.7,0.2-1.1,0.6-1.1V111c0-0.4-0.4-0.6-1.1-0.6v-1.7c0.5,0,0.7-0.5,0.8-1.4c-0.4-0.2-0.6-0.3-0.8-0.3
		c0-0.4,0.1-0.8,0.3-1.1l-0.3-0.6l0.3-1.4c-0.4-0.8-0.6-1.3-0.6-1.7h0.6v-0.8c-0.4,0-0.9-1-1.4-3.1l0.8-1.1v-0.3H40l0.3-0.6V96
		L40,95.4h0.3L40,94.8c0.2,0,0.5,0.1,0.8,0.3h0.3v-0.6h-0.8v-1.7c0.6,0,0.9-0.4,1.1-1.1l-0.8-0.6c0-0.2,0.1-0.5,0.3-0.8l-0.6-1.1
		c0.4-3.2,0.9-4.7,1.4-4.7c-0.3-0.6-0.6-0.8-0.8-0.8l0.3-1.9v-0.6l-0.3-0.6c0.6-0.3,0.8-0.6,0.8-0.8v-0.3l-0.6-0.8h0.8v-0.6
		l-0.3-1.4c0.3-0.4,0.8-0.6,1.4-0.6v-1.4l-0.8-1.1l-0.6,0.3L41,73.6c0-0.2,0.1-0.3,0.3-0.3L41,71.9v-0.3h0.8v-0.3H41V71h0.6v-0.3
		l-0.3-0.6l0.6-0.3l-0.3-0.6h0.6v-0.3l-0.3-0.6c0.4,0,0.6-0.2,0.6-0.6v-0.6l-0.3-0.6c-0.2,0-0.5,0.1-0.8,0.3h-0.3l0.6-0.8l-0.6-0.8
		h1.1v-0.3c-0.3-0.6-0.6-0.8-0.8-0.8c0.6-4.1,1-6.1,1.4-6.1c-0.2-0.9-0.5-1.4-0.8-1.4c0-0.4,0.1-0.8,0.3-1.1L42,54.9l1.1-1.1v-0.3
		l-0.3-0.6h0.6c0.4,0,0.6,0.3,0.6,0.8c0.4,0,0.6-0.2,0.6-0.6c-1.5-1-2.2-1.7-2.2-1.9c0.3-0.7,0.6-1.1,0.8-1.1
		c-0.5-1.5-0.9-2.2-1.4-2.2l0.6-1.1c0-0.3-0.2-0.5-0.6-0.6c0-0.2,0.1-0.5,0.3-0.8c0-0.2-0.1-0.5-0.3-0.8l0.3-0.6l-0.3-0.6
		c0.3-0.6,0.6-0.8,0.8-0.8c0-0.2-0.1-0.5-0.3-0.8c0.1-0.7,0.4-1.1,0.8-1.1c-0.5-0.6-0.8-1.4-1.1-2.2c0-0.3,0.2-0.5,0.6-0.6L42,37.1
		v-0.3l0.6,0.3c0.4,0,0.6-0.2,0.6-0.6c-0.9-0.9-1.4-1.9-1.7-3.1l0.6-1.4c0-0.4-0.3-0.6-0.8-0.6v-0.6l0.6-0.8c0-0.3-0.2-0.5-0.6-0.6
		c0-0.9,1.3-1.5,3.9-1.9l0.6,0.3l0.3-0.6c0.2,0,0.3,0.1,0.3,0.3l0.8-0.6h0.3l0.8,0.6l0.6-0.3c0,0.2,0.1,0.3,0.3,0.3h0.3v-0.6h1.1
		l-0.6,1v0.6c0.4,0,0.6-0.3,0.6-0.8c0.5,0,1.1,0.2,1.7,0.6c0-0.2,0.4-0.5,1.1-0.8H54l1.1,0.8h0.3c0-0.6,0.2-0.8,0.6-0.8l0.8,0.6
		l0.6-0.3c0,0.2,0.1,0.3,0.3,0.3H58c0-0.6,0.3-0.8,0.8-0.8c0,0.4,0.2,0.6,0.6,0.6s0.6-0.2,0.6-0.6l0.6,0.3L61.1,26.8z M41.4,69.4V70
		h-0.3v-0.6H41.4z M41.4,86l0.6,0.8c0.4,0,0.6-0.2,0.6-0.6l0.6,0.3h0.3v-0.8c-0.4,0-0.8,0.1-1.1,0.3l-0.6-0.3h-0.3L41.4,86L41.4,86z
		 M42.2,67.4v0.3h-0.6v-0.3H42.2z M42.2,75.8v0.6h-0.6v-0.6H42.2z M41.7,80.8l0.3,0.6l0.6-0.3c0-0.3-0.2-0.5-0.6-0.6h-0.3V80.8z
		 M41.7,117.2h0.6v-0.6h-0.6V117.2z M42.5,50.2v0.3h-0.6v-0.3H42.5z M41.9,79.9h0.8v-0.3c0-0.3-0.2-0.5-0.6-0.6h-0.3L41.9,79.9
		L41.9,79.9z M42.2,102.5h0.6v-0.6C42.5,101.9,42.3,102.1,42.2,102.5z M42.2,121.9c0,0.4,0.2,0.6,0.6,0.6h0.6v-0.3l-0.3-0.6
		c-0.2,0-0.3,0.1-0.3,0.3l-0.6-0.3V121.9z M43,46.6h0.3V46h-0.8C42.5,46.4,42.7,46.6,43,46.6z M42.5,56.6H43v-0.8h-0.6L42.5,56.6
		L42.5,56.6z M42.5,110.5c0.5,0.7,0.8,1.1,1.1,1.1h0.3c0-0.6,0.2-0.8,0.6-0.8v-0.3l-0.3-0.6c-0.2,0-0.3,0.1-0.3,0.3
		c-0.2,0-0.5-0.1-0.8-0.3C42.7,110,42.6,110.1,42.5,110.5z M42.8,65.5h0.6v-0.3h-0.6V65.5z M42.8,69.9h0.6c0-0.2,0.1-0.5,0.3-0.8
		h-0.8L42.8,69.9L42.8,69.9z M42.8,112.7c0.4,0,0.6-0.2,0.6-0.6h-0.6V112.7z M43,81.9c0.2,0,0.5,0.1,0.8,0.3l-0.3,0.6v0.3
		c1.3-0.2,1.9-0.6,1.9-1.1c0-0.2-0.4-0.4-1.1-0.6l-0.6,0.3c-0.2,0-0.5-0.1-0.8-0.3L43,81.9L43,81.9z M43.6,36.5v0.6
		c1.1-0.2,1.7-0.5,1.7-0.8L45,35.7C44.1,35.9,43.6,36.1,43.6,36.5z M43.6,38.5h0.6v-0.6C43.9,37.9,43.7,38.1,43.6,38.5z M44.2,76
		v-0.6h-0.6C43.6,75.9,43.8,76,44.2,76z M43.9,46v0.3h0.3l0.6-0.3l-0.3-0.6C44.1,45.4,43.9,45.6,43.9,46z M44.4,61.6V61h-0.6
		C43.9,61.4,44.1,61.6,44.4,61.6z M45,127.2c0-0.4,0.1-0.8,0.3-1.1l-0.6-0.3h-0.8C44.4,126.7,44.8,127.2,45,127.2z M44.2,39.1
		c0,0.4,0.2,0.6,0.6,0.6h0.8v-0.3c-0.3-0.6-0.6-0.8-0.8-0.8C44.7,38.9,44.5,39.1,44.2,39.1z M44.2,97.7h0.6v-0.3h-0.6V97.7z
		 M44.4,84.9c0,0.4,0.2,0.6,0.6,0.6h0.3v-0.3c-0.3-0.6-0.6-0.8-0.8-0.8L44.4,84.9L44.4,84.9z M44.4,109.1H45v-0.3h-0.6V109.1z
		 M44.7,74.6H45v-0.8h-0.3V74.6z M46.4,87.4h0.3l0.6-0.3c0-0.3-0.2-0.5-0.6-0.6l-0.6,0.3c0-0.3-0.2-0.5-0.6-0.6h-0.3
		C45.7,87.1,46.1,87.4,46.4,87.4z M45.6,47.7c0,0.4,0.2,0.6,0.6,0.6h0.3V48l-0.3-0.6L45.6,47.7z M45.6,51.6h0.6V51
		C45.8,51,45.6,51.2,45.6,51.6z M45.8,46.3h0.3v-0.6h-0.3V46.3z M45.8,70.8h0.3v-0.6h-0.3V70.8z M45.8,76.9c0,0.4,0.2,0.6,0.6,0.6
		V76h-0.6V76.9z M46.1,82.2h0.3v-0.6h-0.3V82.2z M46.1,85.5h0.6v-0.6h-0.6V85.5z M46.1,101.6h0.6v-0.3h-0.6V101.6z M46.1,112.7
		c1.4,0.9,2.3,1.4,2.8,1.4v-0.3c-0.7-0.9-1.1-1.5-1.1-1.7c-0.2,0-0.5,0.1-0.8,0.3l-0.6-0.3h-0.3C46.1,112.1,46.1,112.7,46.1,112.7z
		 M46.7,103.6l0.3,0.6l0.6-0.3l-0.3-0.6L46.7,103.6z M47.2,39.3v0.3c0.4,0,0.8,0.1,1.1,0.3l0.3-0.6l-0.3-0.6
		C47.9,39.1,47.5,39.3,47.2,39.3z M47.8,58v-0.6h-0.6C47.2,57.8,47.4,58,47.8,58z M48.3,32.9l0.3,1.4v0.8h-1.1
		c0,0.9,0.3,1.4,0.8,1.4c0.6,0,1.2-0.5,1.7-1.4v-0.3c0-0.4-0.3-0.6-0.8-0.6l0.3-0.6L49.2,33c0.2,0,0.3-0.1,0.3-0.3v-0.3
		C48.8,32.8,48.4,32.9,48.3,32.9z M48.1,62.1h0.8v-0.3h-0.8V62.1z M48.1,127.8h0.6c0-0.3-0.2-0.5-0.6-0.6V127.8z M48.3,69.4v0.3
		c0.5,0.7,0.8,1.1,1.1,1.1h0.8c0-0.2,0.1-0.5,0.3-0.8c0-0.2-0.1-0.5-0.3-0.8L48.3,69.4z M48.3,111.9c0.4,0,0.6-0.2,0.6-0.6h-0.6
		V111.9z M48.3,113c0.5,0,1.3,0.6,2.2,1.9c0.4,0,0.6-0.2,0.6-0.6c-0.4-0.7-1-1.1-1.7-1.1v-0.6c0.2,0,0.3,0.1,0.3,0.3l0.6-0.3
		c0-0.3-0.2-0.5-0.6-0.6h-0.6C48.6,112.5,48.3,112.7,48.3,113z M48.6,73.8h0.6v-0.3h-0.6V73.8z M49.4,89.9c0.4,0,0.6-0.2,0.6-0.6V89
		h-1.1L49.4,89.9z M49.2,29.6c0.3,0,0.6,0.2,1.1,0.6v-0.3L50,29.3h-0.8V29.6z M49.2,74.9c0,0.4,0.2,0.6,0.6,0.6H50
		c0-0.6,0.3-0.8,0.8-0.8v-0.6H50C50,74.6,49.7,74.9,49.2,74.9z M49.2,116.6H50V116h-0.8V116.6z M49.4,78.3v0.3l1.4-0.3v-0.6
		c-0.2,0-0.5-0.1-0.8-0.3L49.4,78.3z M49.4,84.9h0.3v-0.6h-0.3V84.9z M49.7,33.5v0.3c0.2,0,0.5-0.1,0.8-0.3c0.8,0.6,1.5,0.8,1.9,0.8
		v-0.6h-0.6v-0.6l0.3-0.6l-1.4-0.3C50.1,32.8,49.7,33.2,49.7,33.5z M49.7,72.7h0.6v-0.6h-0.6V72.7z M49.7,96.9h0.6v-0.6
		C50,96.3,49.8,96.5,49.7,96.9z M49.7,101.6c0.4,0,0.6-0.2,0.6-0.6v-0.3h-0.6V101.6z M50,87.2l0.3,0.6l0.6-0.3l-0.3-0.6L50,87.2z
		 M50.3,76.3h0.6V76h-0.6V76.3z M50.3,112.2h1.1c0-0.3-0.2-0.5-0.6-0.6h-0.6L50.3,112.2L50.3,112.2z M50.6,94.4h1.1v-0.6h-1.1V94.4z
		 M50.8,34.6c0.3,0,0.8,0.2,1.4,0.6h0.3c0-0.4-0.6-0.7-1.7-1.1V34.6z M50.8,57.1h0.6v-0.3h-0.6V57.1z M50.8,97.2h0.6v-0.6h-0.6V97.2
		z M52.2,102.2c0-0.7-0.4-1.3-1.1-1.7h-0.3C51.1,101.3,51.6,101.8,52.2,102.2z M50.8,107.5h0.8v-0.6h-0.8V107.5z M50.8,115.8
		c0,0.3,0.5,0.6,1.4,0.8V116h-0.6v-0.6l0.6,0.3v-0.3c-0.3-0.6-0.6-0.8-0.8-0.8h-0.3C51.1,115.1,51,115.5,50.8,115.8z M51.9,76.6h0.6
		l-0.3-1.7h-0.6C51.9,75.9,51.9,76.5,51.9,76.6z M51.7,80.2h0.6v-0.6h-0.6V80.2z M51.7,113.6h0.6V113
		C51.9,113,51.7,113.2,51.7,113.6z M52.5,92.7v-0.6h-0.6C51.9,92.5,52.1,92.7,52.5,92.7z M52.2,97.4c0.4,0,0.6-0.2,0.6-0.6H52
		L52.2,97.4z M51.9,100c0.3,0.7,0.6,1.1,0.8,1.1H53v-0.6c-0.4,0-0.6-0.3-0.6-0.8L51.9,100z M51.9,120.8h0.8l-0.3-0.6
		C52.2,120.3,52,120.4,51.9,120.8z M51.9,125.8v0.6l1.1-0.3v-0.6L51.9,125.8z M52.2,36.3h0.6v-0.6C52.5,35.7,52.3,35.9,52.2,36.3z
		 M52.2,55.5h0.6v-0.3h-0.6V55.5z M52.2,78h0.6c0-0.3-0.2-0.5-0.6-0.6V78z M52.5,106.1v0.3c0.4,0,0.8,0.1,1.1,0.3
		c0-0.2,0.1-0.5,0.3-0.8l-0.6-0.3H53C52.7,105.5,52.6,105.7,52.5,106.1z M52.5,118.9h0.3v-0.6h-0.3V118.9z M52.8,89.7V90
		c0,0.4,0.5,0.6,1.4,0.6c0,0.4-0.2,0.6-0.6,0.6c0,0.4,0.3,0.6,0.8,0.6c0,0.2-0.1,0.3-0.3,0.3c0,0.4,0.2,0.6,0.6,0.6H55
		c0.1-0.7,0.4-1.1,0.8-1.1c0-0.5-0.5-0.8-1.4-0.8v-0.6h0.3l0.8,0.6h0.8v-0.6c-0.6,0-1.4-0.3-2.2-0.8c-0.2,0-0.5,0.1-0.8,0.3v-0.3
		C53,89.1,52.8,89.3,52.8,89.7z M53.6,35.7v-0.6H53C53.1,35.5,53.2,35.7,53.6,35.7z M53.1,47.9h0.6v-0.3h-0.6V47.9z M53.1,80.8v0.3
		h0.3l0.6-0.3l-0.3-0.6C53.3,80.2,53.1,80.4,53.1,80.8z M53.1,100.5h0.6v-0.3h-0.6V100.5z M53.3,102.7h0.8v-0.6
		c-0.2,0-0.5-0.1-0.8-0.3H53C53.2,102.3,53.3,102.5,53.3,102.7z M53.6,28.8l0.3,0.6l0.6-0.3l-0.3-0.6L53.6,28.8z M53.9,32.7h0.3
		v-1.1h-0.6L53.9,32.7z M53.6,79.4h1.1c0-0.4,0.1-0.8,0.3-1.1L54.4,78h-0.6L53.6,79.4z M53.6,81.9c0.4,0,0.6-0.2,0.6-0.6h-0.6V81.9z
		 M55.3,32.4l0.8,1.4h-0.8c0-0.7-0.3-1.1-0.8-1.1h-0.3c0,0.6-0.1,1.1-0.3,1.4c1.7,0.2,2.5,0.6,2.5,1.1l0.6-0.3
		c0-0.6-0.4-1.6-1.1-2.8L55.3,32.4z M53.9,37.1h0.6v-0.6h-0.6V37.1z M53.9,107.7l0.3,0.6c0.4,0,0.6-0.2,0.6-0.6
		c-0.2,0-0.5-0.1-0.8-0.3L53.9,107.7L53.9,107.7z M53.9,117.8h0.3v-0.6h-0.3V117.8z M55.3,125.3l-1.4-0.3v0.8c0,0.3,0.5,0.6,1.4,0.8
		l0.3-0.6v-1.4h-0.3V125.3z M54.2,64.4l0.3,0.6c0.4,0,0.6-0.2,0.6-0.6v-0.6h-0.3C54.4,63.8,54.2,64,54.2,64.4z M54.7,75.5
		c0.4,0,0.6-0.2,0.6-0.6h-1.1C54.2,75.3,54.4,75.5,54.7,75.5z M54.7,81.9c0.6-0.3,0.8-0.6,0.8-0.8c0-0.3-0.2-0.5-0.6-0.6h-0.8
		C54.2,80.8,54.4,81.3,54.7,81.9z M55,103h-0.3l-0.6-0.3v0.3c0,0.4,0.2,0.6,0.6,0.6l0.6-0.3c0,0.2,0.1,0.3,0.3,0.3h0.3
		c0-0.2,0.1-0.5,0.3-0.8c-0.2,0-0.5-0.1-0.8-0.3C55.1,102.5,55,102.6,55,103z M54.2,113.9h0.3v-0.6h-0.3V113.9z M55.8,99.1v-0.3
		c-0.7-1.3-1.1-1.9-1.4-1.9C54.6,98.4,55.1,99.1,55.8,99.1z M54.4,106.3h0.3v-0.6h-0.3V106.3z M54.7,49.1c0.4-0.2,0.6-0.3,0.8-0.3
		v-0.6h-0.8V49.1z M54.7,50.7h1.1v-0.6h-0.6C55,50.2,54.8,50.4,54.7,50.7z M55.3,55.5v-0.6h-0.6C54.7,55.3,54.9,55.5,55.3,55.5z
		 M54.7,86.9H55v-0.6h-0.3V86.9z M55,35.4h1.1v-0.6h-0.6C55.3,34.9,55.1,35.1,55,35.4z M55.8,95.8h0.3v-0.6h-0.8
		C55.3,95.6,55.5,95.8,55.8,95.8z M55.8,117.2v0.6h-0.6v-0.6H55.8z M55.6,78.5h0.3V78h-0.3V78.5z M55.6,120.3c0,0.4,0.2,0.6,0.6,0.6
		h0.6v-0.3c-0.3-0.6-0.6-0.8-0.8-0.8h-0.3L55.6,120.3L55.6,120.3z M56.1,47.4h0.6v-0.3c0-0.3-0.2-0.5-0.6-0.6V47.4z M56.1,124.4
		c0,0.4,0.2,0.6,0.6,0.6H57v-0.3c0-0.3-0.2-0.5-0.6-0.6h-0.3V124.4z M57,27.1v0.3h-0.6v-0.3H57z M56.4,41.3H57v-0.6h-0.6V41.3z
		 M57,79.7v-0.6h-0.6C56.4,79.5,56.6,79.7,57,79.7z M56.4,81.9h0.3l0.6-0.3C57.1,81.2,57,81,57,80.8h-0.6V81.9z M56.7,75.2h0.6v-0.6
		h-0.6V75.2z M57.2,66c0.3,0,0.6-0.4,0.8-1.1c-0.2,0-0.3-0.2-0.3-0.6H57L57.2,66z M58.1,28.8h0.8v-0.6h-0.3
		C58.3,28.2,58.1,28.4,58.1,28.8z M61.4,121.4c0.3,0.6,0.6,0.8,0.8,0.8h0.3v-0.6c-0.3,0-0.6-0.2-1.1-0.6
		C61.4,121,61.4,121.4,61.4,121.4z M64.2,124.7h0.6c0-0.3-0.2-0.5-0.6-0.6V124.7z M67.8,125.3c0.4,0,0.6-0.2,0.6-0.6
		c0-0.3-0.2-0.5-0.6-0.6h-0.3L67.8,125.3z M68.4,126.6c0,0.4,0.2,0.6,0.6,0.6h0.3v-0.6c-0.2,0-0.5-0.1-0.8-0.3L68.4,126.6
		L68.4,126.6z M69.7,120.8h0.6c0-0.3-0.2-0.5-0.6-0.6V120.8z M72,124.4h0.3l0.6-0.3c0-0.3-0.2-0.5-0.6-0.6H72V124.4z M75.3,125.5
		c0,0.4,0.2,0.6,0.6,0.6v-0.8h-0.6V125.5z M77.8,122.5c0.4,0,0.6-0.2,0.6-0.6h-0.8L77.8,122.5z"/>
	<path d="M118.6,25.2c0.7,0.6,1.4,0.8,1.9,0.8l-0.3,0.6v0.3c1.9-0.4,3-0.6,3.3-0.6c0.4,0,0.6,0.2,0.6,0.6h-0.6v0.3
		c0,0.4,0.2,0.6,0.6,0.6h0.8c0-0.2-0.1-0.5-0.3-0.8v-0.3h0.6c0.5,0,1.1,0.2,1.7,0.6l3.6-0.8c0,0.2,0.1,0.3,0.3,0.3
		c-0.3,0.6-0.6,0.8-0.8,0.8l-0.6-0.3c0,0.9,0.6,1.4,1.7,1.4c0,0.9-0.1,1.4-0.3,1.7c0.2,0.3,0.3,0.7,0.3,1.1l-0.3,1.4
		c0.2,0,0.3,0.1,0.3,0.3h-0.8c0.4,0.9,0.6,1.6,0.6,1.9l-0.6,3.6c0.2,0,0.3,0.1,0.3,0.3c-0.6,0-0.9,0.4-1.1,1.1l0.3,0.6
		c-0.6,0.4-0.8,0.7-0.8,0.8v0.3l0.6,0.8v0.3c0,0.4-0.3,0.6-0.8,0.6v0.3l0.3,0.6l-0.6,0.6v1.1c-0.4,0-0.8-0.1-1.1-0.3H127
		c0.6,0.6,0.9,1.5,1.1,2.5c-0.6,1.5-0.8,2.4-0.8,2.8l-1.4-0.3l-0.8,0.6c0,1.1,0.5,1.7,1.4,1.7v0.8c-0.6,0-0.8,0.2-0.8,0.6h0.6v0.3
		c-0.5,0-0.7,0.5-0.8,1.4c0.4,0,0.6,0.2,0.6,0.6c0,0.2-0.1,0.3-0.3,0.3c-0.4,2.6-1.2,3.9-2.5,3.9v0.6h1.1v0.6
		c-0.7,0-1.1,0.6-1.4,1.9h0.3c0,0.9-0.3,1.5-0.8,1.7H122l-0.8-0.6c0,0.2,0.1,0.5,0.3,0.8v1l-1.4,1.7l0.3,1.4
		c-0.2,0.4-0.3,0.6-0.3,0.8l-0.6-0.3h-0.6l-0.6,0.3v-0.3c-0.3,0-0.5,0.2-0.6,0.6h0.6v0.3H118l-0.6-0.3h-0.3c0,0.6,0.5,0.8,1.4,0.8
		v0.3c-0.6,0.8-0.8,1.5-0.8,1.9h-1.4l-0.6,0.3c0.7,0.9,1.1,1.5,1.1,1.7s-0.4,0.4-1.1,0.6l0.3,1.4c-0.6,0.6-0.9,1.5-1.1,2.5
		c-0.2,0-0.3-0.1-0.3-0.3c-0.6,0.3-0.8,0.6-0.8,0.8l0.3,0.6c-0.2,0-0.4,0.3-0.6,0.8c0.2,0,0.3,0.1,0.3,0.3c-1.3,0.4-1.9,0.9-1.9,1.7
		l-0.8-0.6h-0.3l-0.6,0.3c0,0.8,0.2,1.5,0.6,2.2c-0.2,0-0.4,0.6-0.6,1.7c-1.5,1-2.2,1.9-2.2,2.8l0.3,0.6c-0.6,0.4-1.1,0.6-1.7,0.6
		l0.6,0.8c-0.5,0-0.9,0.2-1.4,0.6L105,93c-0.4,0.1-0.7,0.6-1.1,1.4c0.2,0,0.3,0.1,0.3,0.3l-0.3,0.6h0.6v0.8l-1.1,1.1l0.3,0.6h-0.8
		v0.8c0,0.5-1.1,1.8-3.1,3.9h-0.6l-0.8-0.6h-0.3v0.3l0.3,0.6c-0.2,0-0.3,0.1-0.3,0.3c-0.2,0-0.5-0.1-0.8-0.3h-0.6l0.3,0.6v0.3
		c0,0.4-0.2,0.6-0.6,0.6c0,0.2,0.1,0.3,0.3,0.3c-0.6,0.5-0.8,0.9-0.8,1.4h-0.3l-0.8-0.6v1.4h-1.4l-0.6,0.3c0,0.2,0.1,0.5,0.3,0.8
		c0,0.2-0.3,0.4-0.8,0.6l-0.8-0.8l0.3-0.6c0-0.3-0.2-0.5-0.6-0.6h-0.6l1.1,2.8l-1.1,1.9c-0.2,0-0.5-0.1-0.8-0.3
		c-0.5,0.4-0.8,0.6-1.1,0.6c0,0.4,0.3,0.6,0.8,0.6v0.3c-1.2,1.1-2.3,1.7-3.3,1.7l-1.4-1.7v-0.3l0.6,0.3h0.3v-0.6
		c-0.7,0-1.4-0.6-2.2-1.7v-0.6h0.8v-0.6c-1.1-0.5-1.7-1.2-1.7-2.2c-1.9-1-2.8-1.6-2.8-1.9c0.2,0,0.3-0.1,0.3-0.3v-0.3
		c-0.9,0-1.4-0.6-1.4-1.7h0.8V102l-0.3-0.6h1.4v-0.3l-0.3-0.6h0.6v-0.8l0.3-0.6c1.9-0.9,2.8-1.5,2.8-1.9V97l-0.8,0.6h-0.6V97h0.8
		v-1.4c1.3,0,1.9-0.7,1.9-2.2h0.3l0.6,0.3v-0.3c1.1-0.6,1.7-1.1,1.7-1.7h0.6l0.6,0.3l-0.3-1.4V90h0.6v0.6H90c0-0.2,0.1-0.5,0.3-0.8
		L90,89.2c0-0.3,0.5-0.6,1.4-0.8c0.3,0.2,0.7,0.3,1.1,0.3h0.6v-1.1c-0.2,0-0.5,0.1-0.8,0.3H92c0-0.2,0.1-0.3,0.3-0.3L92,86.2
		c0.2,0,0.5-0.1,0.8-0.3c0-0.2-0.1-0.3-0.3-0.3c0.2-0.4,0.3-0.6,0.3-0.8c0.9,0,1.4-1,1.4-3.1h0.3c0,0.6,0.2,0.8,0.6,0.8V82
		c0-0.6,0.4-0.8,1.1-0.8v-0.6L95.9,80c0.5-0.6,1.1-0.8,1.7-0.8c0.2-1.3,0.7-1.9,1.4-1.9l-0.3-0.6c1.5-1.9,2.2-3.2,2.2-3.9l0.6,0.3
		v-0.3l-0.3-0.6c0.7,0,1.1-0.2,1.1-0.6L102,71c0.3,0,0.6-0.4,0.8-1.1l0.6,0.3c0.4,0,0.6-0.2,0.6-0.6h-0.8c0-1.9,0.3-2.8,0.8-2.8
		c0-0.2-0.1-0.3-0.3-0.3l0.3-0.6v-0.6l-2.5-0.3v-0.6h0.6v-0.6h-0.3c-0.3,0-0.5,0.2-0.6,0.6c-0.9,0-1.4-0.3-1.4-0.8
		c-3.6-2.3-5.6-3.7-6.1-4.2H92v-0.8l0.6,0.3h0.3c-0.5-0.7-0.8-1.1-1.1-1.1l-0.6,0.3c0-0.8-0.8-1.6-2.5-2.2c0-0.3,0.2-0.5,0.6-0.6
		c0-0.4-0.5-0.6-1.4-0.6l0.8-1.1c-1.1,0-1.7-0.7-1.7-2.2h-0.3V52h-0.3v-0.3l0.3-0.6v-0.3h-0.6l-0.6,0.3v-0.3l0.6-0.8
		c-1.7-1-2.5-2-2.5-3.1c0.2,0,0.3-0.1,0.3-0.3c-0.1-0.7-0.4-1.1-0.8-1.1v-1.1l0.6,0.3H84l-1-0.8l-0.6,0.3h-0.3v-0.8
		c0.2,0,0.5-0.1,0.8-0.3c-1.1-1-1.7-1.6-1.7-1.9v-0.8l0.6-0.8H81c0-0.7,0.5-1.5,1.4-2.5v-0.3l-1.9-0.3c0-0.2,0.1-0.3,0.3-0.3L80,35
		v-0.6l0.3-0.6l-0.6-0.3c0-0.2,0.1-0.5,0.3-0.8l-0.3-0.6c0.2,0,0.3-0.1,0.3-0.3v-0.3l-0.3-0.6c0.2,0,0.3-0.1,0.3-0.3l0.6,0.3h0.3
		l0.8-0.6l0.6,0.3l0.3-0.6c0.2,0,0.3,0.1,0.3,0.3l1.4-0.3h0.6l1.4,0.3c0-0.2,0.1-0.3,0.3-0.3l1.1,0.3c0.4,0,0.6-0.4,0.6-1.1h0.6
		c0.4,0,0.6,0.3,0.6,0.8h0.6c0.1-0.7,0.4-1.1,0.8-1.1c1.7,0.6,2.5,1.5,2.5,2.5c-0.2,0-0.3,0.1-0.3,0.3v0.6l1.4,1.7l-0.3,0.6l0.8,0.6
		l-0.3,0.6v0.3l0.6-0.3h0.6c1.2,3.2,2.2,4.7,3.1,4.7c0.2,2,0.8,3.1,1.9,3.1l-0.3,0.6c2.2,1.3,3.3,2.3,3.3,3.1
		c-0.2,0-0.3,0.1-0.3,0.3v0.3c0.4,0,1.6,0.3,3.6,0.8v-0.8l0.6,0.3v-0.3c2.2-0.7,3.3-1.2,3.3-1.4v-0.3l-0.3-0.6l1.4-0.3l-0.3-1.4
		v-0.6c1.5-3.1,2.5-4.6,3.1-4.7l-0.6-0.8L115,37l-0.3-0.6h0.3c0.4-2,0.9-3.1,1.7-3.1c0-0.4-0.2-0.9-0.6-1.7c0.2,0,0.5-0.1,0.8-0.3
		c0-0.3-0.2-0.5-0.6-0.6c0-0.2,0.5-0.7,1.4-1.4c-0.6-0.8-0.8-1.7-0.8-2.5c0-0.6,0.5-0.9,1.4-1.1l0.6,0.3v-0.3L118.6,25.2L118.6,25.2
		L118.6,25.2z M81.9,100.6h0.3V100h-0.8C81.4,100.4,81.6,100.6,81.9,100.6z M81.9,105.3v-0.6h-0.6C81.4,105.1,81.6,105.3,81.9,105.3
		z M82.5,100.3c0.4,0,0.6-0.2,0.6-0.6v-0.3h-0.6V100.3z M83.3,38.9c0.4,0,0.6-0.2,0.6-0.6h-0.6V38.9z M83.9,34.7h0.6v-0.6
		C84.1,34.1,83.9,34.3,83.9,34.7z M83.9,100c0,0.3,0.4,0.6,1.1,0.8h0.3v-0.3l-0.6-0.8C84.3,100,84.1,100,83.9,100z M85.3,50.3
		L85,50.8c-0.3,0-0.5-0.2-0.6-0.6V50C84.8,50.2,85.1,50.3,85.3,50.3z M84.7,106.7H85v-0.6h-0.3V106.7z M85.3,101.2
		c0,0.4,0.2,0.6,0.6,0.6s0.6-0.2,0.6-0.6c0-0.3-0.2-0.5-0.6-0.6C85.5,100.6,85.3,100.8,85.3,101.2z M86.7,43.3l0.3,0.6l1.4-0.3v-0.3
		L86.9,43h-0.3L86.7,43.3L86.7,43.3z M86.9,103.1h0.3v-0.6h-0.3V103.1z M87.8,52.5h0.8l-0.3-0.6C88,51.9,87.8,52.1,87.8,52.5z
		 M87.8,105.9h0.6v-0.3h-0.6V105.9z M88.6,32.5c0.2,0,0.5,0.1,0.8,0.3h0.3v-0.6h-1.1C88.6,32.2,88.6,32.5,88.6,32.5z M88.9,39.1v0.3
		l0.3,0.6c0.4,0,0.6-0.2,0.6-0.6v-0.3l-0.3-0.6C89.1,38.6,88.9,38.8,88.9,39.1z M89.2,52.2v0.6h0.6v-1.1
		C89.4,51.7,89.2,51.8,89.2,52.2z M89.2,102.5H90c0-0.3-0.2-0.5-0.6-0.6h-0.3L89.2,102.5L89.2,102.5z M89.4,31.6
		c0,0.4,0.2,0.6,0.6,0.6v-0.8h-0.6V31.6z M90,103.7h0.8v-0.6H90V103.7z M90.3,102c0,0.4,0.2,0.6,0.6,0.6l0.6-0.3
		c0-0.3-0.2-0.5-0.6-0.6h-0.6V102z M90.6,104.8h0.8v-0.6h-0.8V104.8z M90.8,31.1v0.3c0.2,0,0.5,0.1,0.8,0.3h0.3v-0.6
		c0-0.3-0.2-0.5-0.6-0.6C91.1,30.5,90.9,30.7,90.8,31.1z M91.1,91.4l0.3,0.6c0.4,0,0.6-0.2,0.6-0.6l-0.3-0.6
		C91.4,90.9,91.2,91.1,91.1,91.4z M91.4,34.4V35h0.3c0.4,0,0.6-0.2,0.6-0.6v-0.6H92C91.6,33.9,91.4,34,91.4,34.4z M91.4,92.8
		l0.3,0.6c0.4,0,0.6-0.2,0.6-0.6L92,92.2C91.6,92.3,91.4,92.4,91.4,92.8z M91.4,95.3H92v-0.6h-0.6V95.3z M92.2,100
		c0,0.4,0.2,0.6,0.6,0.6v-0.8c0-0.3-0.2-0.5-0.6-0.6V100z M92.5,54.2c0,0.4,0.2,0.6,0.6,0.6h0.3v-0.3c0-0.3-0.2-0.5-0.6-0.6h-0.3
		V54.2z M92.5,86.1l0.3,0.6l0.6-0.3c0-0.3-0.2-0.5-0.6-0.6h-0.3V86.1z M93.1,94.8h0.6v-0.6h-0.6V94.8z M94.2,43.3h0.3V43
		c0-0.3-0.2-0.5-0.6-0.6h-0.6C93.6,43,93.9,43.3,94.2,43.3z M93.3,88.6h0.6V88h-0.6V88.6z M93.9,88.6c0.3,0.6,0.6,0.8,0.8,0.8H95
		v-1.1h-0.6L93.9,88.6z M94.2,92h0.6v-0.6h-0.6V92z M94.2,95.3l0.3,0.6c0.6-0.3,0.8-0.6,0.8-0.8h-0.6L94.2,95.3z M94.4,83.4l0.6,0.3
		h0.8c-0.5-0.7-0.8-1.1-1.1-1.1C94.7,82.7,94.6,83,94.4,83.4z M94.4,84.8h0.3v-0.6h-0.3V84.8z M95,39.1h0.6c0-0.3-0.2-0.5-0.6-0.6
		V39.1z M95.3,60.6v0.3h0.3l0.6-0.3L95.9,60C95.5,60,95.3,60.2,95.3,60.6z M95.3,64.7h0.6 M95.8,88.9v-0.6h-0.6
		C95.3,88.7,95.5,88.9,95.8,88.9z M95.6,38.3h0.6c0-0.3-0.2-0.5-0.6-0.6V38.3z M95.6,46.1l1.7,1.7l0.6-0.3c-0.8-1.1-1.4-1.7-1.7-1.7
		h-0.6V46.1z M95.8,96.2h0.6v-0.6h-0.6V96.2z M96.1,85.6h0.3V85h-0.3V85.6z M96.4,89.5h0.3v-0.6h-0.3V89.5z M96.7,93.4
		c0.3,0.6,0.6,0.8,0.8,0.8h0.3v-0.3c0-0.3-0.4-0.6-1.1-0.8C96.7,93.1,96.7,93.4,96.7,93.4z M98.3,92.3h0.3v-0.6h-0.3V92.3z
		 M99.2,46.7c0.4,0,0.6-0.2,0.6-0.6h-0.6V46.7z M99.2,93.4h0.8v-0.6h-0.3C99.4,92.8,99.2,93,99.2,93.4z M100,45.5
		c0.2,0.3,0.3,0.7,0.3,1.1h0.6c0.4,0,0.6-0.2,0.6-0.6c0.4,0,0.6,0.3,0.6,0.8h0.3v-1.4H101l-0.6-0.3C100.3,45.4,100.2,45.5,100,45.5z
		 M101.1,50.8c0,0.4,0.2,0.6,0.6,0.6h0.3v-0.3c0-0.3-0.2-0.5-0.6-0.6h-0.3V50.8z M102,48.9h0.6v-0.3H102V48.9z M102.2,92.8h0.3
		c0.6-0.3,0.8-0.6,0.8-0.8h-1.1C102.2,92,102.2,92.8,102.2,92.8z M102.8,49.7V50c0.2,0,0.5-0.1,0.8-0.3c0.4,0,0.6,0.2,0.6,0.6
		l1.1-0.6c-0.1-0.4-0.6-0.7-1.4-1.1L102.8,49.7z M102.8,89.2h0.6v-0.6h-0.6V89.2z M103.6,83.4h0.3v-0.6h-0.3V83.4z M104.7,82.2h0.3
		v-0.6h-0.3V82.2z M105,51.7h0.3v-0.6H105V51.7z M105.3,76.1c0.4,0,0.6-0.2,0.6-0.6H105L105.3,76.1z M105,90.3h0.3v-0.6H105V90.3z
		 M105.6,93.6v0.6H105v-0.6H105.6z M105.8,66.7h0.3v-0.6h-0.3V66.7z M107.2,56.7h0.6c0-0.3-0.2-0.5-0.6-0.6V56.7z M107.5,49.2V50
		h0.3c0.8,0,1.5-0.2,2.2-0.6l0.6,0.3h0.3v-0.3l-0.3-0.6c-0.2,0-0.3,0.1-0.3,0.3l-0.6-0.3l-0.6,0.3v-0.3L107.5,49.2z M108.4,73.1
		c0,0.4,0.2,0.6,0.6,0.6h0.3v-1.1h-0.8L108.4,73.1L108.4,73.1z M108.6,79.5c0,0.2,0.1,0.5,0.3,0.8c0.6-0.3,0.8-0.6,0.8-0.8v-0.8
		h-0.8C108.9,78.8,108.8,79.1,108.6,79.5z M109.2,50.8c0.3,0,0.8,0.2,1.4,0.6c0-0.2,0.1-0.3,0.3-0.3c0-0.4-0.6-0.6-1.7-0.8
		C109.2,50.3,109.2,50.8,109.2,50.8z M110,52.5c0,0.4,0.2,0.6,0.6,0.6h1.1v-0.6c-0.7,0-1.1-0.2-1.1-0.6
		C110.3,51.9,110.1,52.1,110,52.5z M111.4,48v0.3l-0.6-0.3h-0.3c0.3,0.6,0.6,0.8,0.8,0.8c0,0.2-0.1,0.3-0.3,0.3l0.3,0.6l0.6-0.3
		c0-0.2-0.1-0.5-0.3-0.8L112,48c0-0.6-0.2-0.8-0.6-0.8h-0.3C111.1,47.4,111.2,47.7,111.4,48z M110.6,68.6h0.3V68h-0.3V68.6z
		 M110.6,81.4h0.3v-0.6h-0.3V81.4z M111.7,85.3c0,0.4-0.2,0.6-0.6,0.6h-0.3v-0.6H111.7z M112,56.4h0.6v-0.3H112V56.4z M112.2,63.9
		c0,0.4,0.2,0.6,0.6,0.6h0.3v-0.6c0-0.3-0.2-0.5-0.6-0.6h-0.3V63.9z M112.5,49.7v0.6h0.6c0.4,0,0.6-0.2,0.6-0.6v-0.6h-0.6
		C112.8,49.2,112.6,49.3,112.5,49.7z M112.8,51.9h0.6v-0.6h-0.6V51.9z M112.8,59.2h0.8v-0.3h-0.8V59.2z M112.8,77
		c0,0.3,0.4,0.6,1.1,0.8h0.3V77c-0.2,0-0.5-0.1-0.8-0.3L112.8,77z M113.1,47.2h0.6v-0.6h-0.6V47.2z M114.2,67.2v-0.6h-0.6
		C113.6,67,113.8,67.2,114.2,67.2z M116.1,72.5h0.6c0.4,0,0.6-0.2,0.6-0.6h-0.6C116.4,72,116.2,72.1,116.1,72.5z M118.1,27.7
		c0.4,0,0.6-0.2,0.6-0.6h-0.6V27.7z M118.9,29.4h0.8c0-0.3-0.2-0.5-0.6-0.6h-0.3v0.6H118.9z M119.2,27.5h0.3v-0.6h-0.3V27.5z
		 M119.5,57.2h0.8c0-0.3-0.2-0.5-0.6-0.6h-0.3v0.6H119.5z M119.8,53.6h0.6V53h-0.6V53.6z M120,50c1.1,1,1.7,1.6,1.7,1.7v0.8
		l-0.6-0.3h-0.3v0.6h1.4c0-1.1-0.4-2.2-1.1-3.3h-0.6C120.3,49.4,120.1,49.6,120,50z M120.3,30.5c0.3,0.6,0.6,0.8,0.8,0.8v-1.1h-0.3
		L120.3,30.5z M120.9,44.7h0.6v-0.6C121.1,44.1,120.9,44.3,120.9,44.7z M120.9,49.2h0.8c0-0.3-0.2-0.5-0.6-0.6h-0.3v0.6H120.9z
		 M120.9,61.7h0.6v-0.3h-0.6V61.7z M121.1,46.4c0,0.9,0.3,1.5,0.8,1.7h0.8v-0.3c-0.7-0.7-1.1-1.3-1.1-1.7H121v0.3H121.1z
		 M121.4,28.9h0.6v-0.6h-0.6V28.9z M122,32.7v-0.6h-0.6C121.4,32.6,121.6,32.7,122,32.7z M122,49.7c0.2,0,0.5,0.1,0.8,0.3
		c0-0.2,0.2-0.3,0.6-0.3c0-0.3-0.2-0.5-0.6-0.6h-0.3C122.2,49.2,122,49.3,122,49.7z M123.1,72.2v0.3h-0.6v-0.3H123.1z M123.4,30h0.3
		v-0.6h-0.3V30z M127.5,33.3l0.3,0.6h-0.3l0.8,1.1l0.6-0.3c-0.5-1.1-0.9-1.7-1.1-1.7h-0.3V33.3z M128.1,28.6h0.6V28h-0.6V28.6z
		 M128.1,36.6c0,0.4,0.2,0.6,0.6,0.6v-0.8L128.1,36.6z M130.9,27.7V28h-0.6v-0.3H130.9z M131.7,46.4V47h-0.3v-0.6H131.7z"/>
	<path d="M156.6,28.3c0.2,0,0.3,0.1,0.3,0.3l1.2-0.3c1.8,0,3.1,0.3,3.9,0.9v-0.3c0.8,0.2,1.3,0.4,1.3,0.6l0.7-0.4
		c1.6,0,2.4,0.4,2.4,1.3h1.2c0.2,0,0.3-0.1,0.3-0.3c1.2,0.3,2.2,0.7,3.1,1.3l0.6-0.3c5.3,2.3,7.9,4.8,7.9,7.3
		c0.5,0.5,0.9,1.6,1.3,3.4c-0.4,0.2-0.8,0.3-1,0.3v0.6c0.2,0,0.5,0.1,1,0.3l-0.4,0.6l0.4,1.8c-0.2,0.4-0.4,0.7-0.4,1
		c0.4,0,0.7,1.2,0.9,3.6c0,1.2-0.5,1.9-1.5,1.9v1.8c-0.6,1.5-1.6,2.7-3.1,3.7c-1.8,2.2-3.5,3.3-5.1,3.3v-0.3
		c-0.7,0.2-1.1,0.6-1.3,1.2l-0.6-0.3c-0.4,0.1-0.6,0.3-0.6,0.6v0.3c2.8,0.8,6.2,1.3,10.1,1.3l0.6,1.2l0.6-0.3l0.9,0.6l1-0.6
		c1.2,0.5,1.8,1,1.8,1.5h0.3V65c2,0.4,3.1,1.2,3.1,2.4h0.3l0.7-0.3c3.1,2.7,4.6,4.1,4.6,4.3c-0.2,0.4-0.4,0.7-0.4,0.9l0.6-0.3
		c0.8,1.4,1.3,2.7,1.5,4h0.3l-0.3,0.6v0.3c0.8,0.8,1.3,1.5,1.3,1.9l-0.4,1.5c0.8,0,1.3,1.2,1.5,3.7c-0.2,0.4-0.3,0.7-0.3,0.9
		c0.4,0,0.6,0.2,0.6,0.6c-0.4,0.1-0.6,0.2-0.6,0.6c0.4,0.7,0.6,1.3,0.6,1.9v0.6H197v0.3l0.6,0.9v0.9c0,0.5-0.1,0.9-0.4,1.3
		c0.2,0.4,0.4,0.8,0.4,1.3v0.3h-0.4l-0.6-0.3v0.3c0.2,0.4,0.3,0.8,0.3,1.3h-0.6l0.3,2.1c-1,2.9-1.9,4.5-2.7,5
		c-0.2-0.4-0.3-0.8-0.3-1.3h-0.3v2.4l0.6,0.9c-1.1,1.1-2.6,3-4.3,5.8h-0.3l-0.9-0.6c-0.3,1.6-0.8,2.5-1.5,2.5
		c-0.2,0-0.4,0.4-0.4,1.3l-1.5-0.3v0.6l0.4,0.6c-1.1,0.8-2.3,1.4-3.4,1.9c-1,0.8-1.5,1.4-1.5,1.8c-1.7,0.7-2.9,1.5-3.7,2.1
		c-0.2-0.4-0.3-0.8-0.3-1.3h-0.9v2.2c0,0.2-1.2,0.7-3.7,1.5c-0.4-0.2-0.7-0.3-0.9-0.3v-1h0.6v-0.6c-0.2,0-0.4,0.1-0.4,0.3l-0.6-0.3
		H170c0,0.2,0.1,0.5,0.3,0.9c-0.2,1.2-0.5,1.8-0.9,1.8c-0.2,0-0.3-0.1-0.3-0.3c-0.5,0-2.8,0.6-7,1.8h-0.6l-1-0.6l-2.1,0.3
		c-0.2-0.2-0.3-1-0.3-2.4h-0.3c0,0.6-0.3,0.9-0.9,0.9v-1.3h-0.6v0.4l0.6,1.2c-0.2,0-0.5,0.1-1,0.4c-1-0.2-1.5-0.7-1.5-1.5
		c-0.5,0.4-1,0.6-1.5,0.6v0.3l0.6,0.9v0.9h-0.3c-0.4,0-0.6-0.5-0.6-1.5h-0.3v0.9c0.2,0.4,0.3,0.7,0.3,1c-0.4,0-0.6,0.1-0.6,0.3
		c-1.7-1.6-4.2-2.6-7.3-3.1l-0.3-0.6l0.6-0.3c0,0.2,0.1,0.3,0.3,0.3v-0.9c-0.2,0-0.3,0.1-0.3,0.3c-1.2-0.1-1.8-0.5-1.8-1.2h-0.3
		c-0.4,0.1-0.7,0.3-0.7,0.6c-1.4-0.2-2.1-0.9-2.1-2.2v-0.3h0.6V117l-0.6,0.3c0-0.4-0.2-0.6-0.6-0.6c0.2-2.8,0.5-4.7,0.9-5.7
		c-0.2,0-0.3-0.1-0.3-0.4c0.3-0.2,0.8-0.3,1.5-0.3V109H141l-0.6,0.4c0-0.2-0.1-0.4-0.3-0.4l0.3-2.7c0-0.3-0.1-1.8-0.3-4.3l0.3-1.5
		c-0.3-0.8-0.6-1.2-0.9-1.2c0.4-1.5,0.6-2.6,0.6-3.4c-0.4,0-0.6-0.2-0.6-0.6c0-0.1,0.1-0.7,0.3-1.8l-0.3-1.5c0.4,0,0.6-0.2,0.6-0.6
		V91l-0.6-0.9v-3.7h0.6V87h0.3v-1c-0.4-0.2-0.7-0.3-0.9-0.3v-1.5h0.6V83c-0.6,0-1-0.9-1-2.7h0.6v0.6h0.3v-0.3c-0.4-1-0.8-3-1.3-5.8
		l0.3-0.6c-0.2-1.1-0.3-1.9-0.3-2.5l0.3-1.3c-0.2-0.3-0.3-0.8-0.3-1.5c0.4-0.8,0.9-1.3,1.5-1.3V67c-0.7,0-1.2-0.5-1.5-1.5l0.7-1
		c-0.2-1.8-0.4-2.9-0.4-3.3c0-0.1,0.1-0.7,0.4-1.8c-0.2-0.4-0.4-0.7-0.4-1c0-0.1,0.1-0.7,0.4-1.8c0-0.2-0.1-0.5-0.4-0.9
		c0.2-1.1,0.4-2,0.4-2.8v-1.8h0.9V50l-0.6,0.3c-0.2-0.4-0.3-0.7-0.3-0.9c0-0.2,0.1-0.6,0.3-1l-0.3-1.8v-0.3h0.6
		c-0.4-3.7-0.6-6-0.6-6.8l0.3-0.6c-0.2-0.2-0.4-1.8-0.6-4.9h0.6v0.6l0.6-0.3c0,0.2,0.1,0.3,0.3,0.3v-0.9H140v-0.6
		c0-0.3,0.4-0.6,1.2-0.9c0.4,0.2,0.7,0.4,0.9,0.4c0.1-0.4,0.3-0.6,0.7-0.6c0.2,0,0.3,0.1,0.3,0.3c0.8-0.1,1.2-0.3,1.2-0.6
		c0.4,0.2,0.7,0.3,0.9,0.3l0.6-0.3h0.9v-0.3h1V32h0.3c0-1.1,0.9-1.7,2.8-1.9l0.6,0.3C153.5,29.1,155.2,28.4,156.6,28.3z M140.1,35
		v0.6h0.9V35H140.1z M141.3,101.7v0.9h0.6v-0.9H141.3z M141.6,72.7v0.6h0.3v-0.6H141.6z M141.9,62.8v0.9h0.6v-0.3
		C142.6,63,142.3,62.8,141.9,62.8z M141.9,64.6V65c0.2,0.4,0.3,0.7,0.3,0.9h0.4v-1.3H141.9z M142.8,63.8v0.9h0.6v-0.9H142.8z
		 M143.2,113v1h0.3v-1H143.2z M144.4,68.1v0.6c0.1,0.4,0.3,0.6,0.6,0.6h0.7v-0.6C145.3,68.7,144.9,68.5,144.4,68.1z M144.7,66.5v1.2
		h0.3v-1.2H144.7z M145,70.8v1h0.3v-1H145z M145.6,34.7v0.6h0.6v-0.6H145.6z M146.5,69.2v1h0.3v-1H146.5z M146.8,70.8v1h0.4v-1
		H146.8z M146.8,117v0.6h0.4V117H146.8z M148,33.2v0.6h0.3v-0.6H148z M148,82.7V83c0.2,0.4,0.3,0.8,0.3,1.3h0.4V83L148,82.7z
		 M149,117.3v0.9c0.2,0,0.3-0.1,0.3-0.3c0.8,0,1.2,0.4,1.2,1.2h0.9c0-1.2-0.6-1.8-1.8-1.8c0,0.2-0.1,0.3-0.3,0.3
		C149.3,117.4,149.2,117.3,149,117.3z M149.6,40.8v1h0.3v-1C149.9,40.8,149.6,40.8,149.6,40.8z M149.8,72.7v0.6h0.6v-0.6H149.8z
		 M150.8,102v0.9h0.3V102H150.8z M151.1,30.7v0.6h0.7v-0.6H151.1z M151.1,87.6v1h0.3v-1H151.1z M151.1,122.8v0.6h0.3v-0.6H151.1z
		 M151.7,67.7v1h0.3v-1H151.7z M152,30.7v0.6h0.3v-0.6H152z M152,117v0.6h0.3V117H152z M152.9,102.9v0.6h0.4v-0.6H152.9z
		 M153.3,79.4v0.9h0.3v-0.9H153.3z M153.5,92.5v0.6h0.3v-0.6H153.5z M154.1,36.2v1.3h0.3v-1.3H154.1z M154.1,69.2v1h0.3v-1H154.1z
		 M155.4,85.8v0.6h0.6v-0.6H155.4z M156,110.9v0.6h0.4v-0.6H156z M156.3,72.7v0.6h0.3v-0.6H156.3z M157.5,71.7v0.6h0.4v-0.6H157.5z
		 M158.1,76.3v0.9h0.3v-0.9H158.1z M159,71.7v0.6h0.6v-0.6H159z M159,122.2v0.6h0.4v-0.6H159z M159.7,30.4v0.9h0.6v-0.9H159.7z
		 M161.8,86v1.9h0.3c0-0.3,0.2-0.8,0.6-1.3V86H161.8z M161.8,99.8v0.6h0.3v-0.6H161.8z M162.4,111.8v1.2h0.3v-1.2H162.4z M162.7,72
		v0.9h0.3V72H162.7z M162.7,84v0.9h0.3V84H162.7z M162.7,114.2v0.6h0.3v-0.6H162.7z M163.3,100.5v0.9h0.3v-0.9H163.3z M164,32v0.6
		h0.3V32H164z M164.2,29.8v0.9h0.3v-0.9H164.2z M165.5,30.7v0.6h0.3v-0.6H165.5z M167.6,111.8v0.9h0.3v-0.9H167.6z M168.6,44.5v0.6
		h0.3v-0.6H168.6z M169.1,72.9v0.9h0.6v-0.9H169.1z M169.4,84.9v0.9l0.7,0.3v-0.3c-0.2-0.4-0.4-0.7-0.4-0.9H169.4z M169.4,90.1v0.6
		h0.3v-0.6H169.4z M170.1,114.5v1h0.3v-1H170.1z M170.6,38.7v0.9h0.3v-0.9H170.6z M171,35v0.6h0.6V35H171z M171.9,58.5v0.6h0.3v-0.6
		H171.9z M172.2,118.8v1.3h0.3v-1.3H172.2z M172.5,40.5v0.6h0.3v-0.6H172.5z M174.3,87v0.6h0.4V87H174.3z M174.3,113.3v0.9h0.4v-0.9
		H174.3z M175,98.9v1.3h0.3v-1.3H175z M175.6,76.9v1.3h0.3v-1.3H175.6z M177.1,72.9v0.6h0.3v-0.6H177.1z M177.1,76.3v0.9h0.3v-0.9
		H177.1z M177.1,97.1v1.2h0.3v-1.2H177.1z M178,44.5v0.6h0.3v-0.6H178z M178.3,66.2v0.6c0.4-0.2,0.7-0.3,1-0.3v-0.6
		C178.8,66.1,178.5,66.2,178.3,66.2z M178.9,39.6v0.9h0.4v-0.9H178.9z M180.1,65v1.2c0.4,0,0.6-0.2,0.6-0.6V65H180.1z M180.1,86v0.6
		c0.1,0.4,0.3,0.6,0.6,0.6V86H180.1z M188.7,106.3v0.9h0.3v-0.9H188.7z M190.5,84.2l-0.3,1.5v0.6h0.6l0.3-1.5v-0.6H190.5z
		 M190.9,99.5v0.6h0.3v-0.6H190.9z M191.1,70.8v0.6c0.1,0.4,0.3,0.6,0.7,0.6h0.3v-1.3h-1V70.8z M193.6,74.2v0.6h0.3v-0.6H193.6z
		 M194.2,87.3v1.3h0.4v-1.3H194.2z M195.4,92.8v0.6h0.3v-0.6H195.4z"/>
	<path d="M231.9,34.5l1.4,1.1h0.3l-0.6-1.1c0.2,0,0.5,0.1,0.8,0.3l0.6-0.3c0.4,0,1,0.3,1.7,0.8l0.6-0.3c0,0.5,0.7,0.9,2.2,1.1v-0.6
		h0.6c0,0.2-0.1,0.3-0.3,0.3c0,0.4,0.2,0.6,0.6,0.6h0.8l0.6-0.3c0,0.4,0.1,0.8,0.3,1.1c2.4,0,3.6,0.8,3.6,2.5
		c1.2,0.3,2.2,1.7,3.1,4.2c0,0.4-0.3,0.6-0.8,0.6V45c0.7,0,1.1,0.2,1.1,0.6l-0.3,0.6c0.4,0,0.6,0.2,0.6,0.6v1.9
		c-1.1,0-1.7,0.2-1.7,0.6v0.3c0.4,0,0.9-0.2,1.7-0.6h0.3l-1.1,1v0.3c0.2,0,0.8,0.4,1.7,1.1l-0.3,0.6v1.7h-0.3
		c-0.3,0-0.5-0.2-0.6-0.6l-0.6,0.3c0.9,1.1,1.4,1.8,1.4,1.9l-0.3,1.4h0.3v0.8c0,0.2,0.1,0.5,0.3,0.8c-0.2,0-0.4,0.3-0.6,0.8h-0.6
		v-0.3h0.6l-0.3-0.6l-0.8,0.6c0.5,0.9,0.9,1.4,1.1,1.4l0.6-0.3c0,0.2,0.1,0.3,0.3,0.3c0,0.2-0.1,0.5-0.3,0.8c0,0.4,0.3,0.6,0.8,0.6
		V62c-0.3,0-0.6,0.2-1.1,0.6h-0.8l0.3-0.6v-0.3l-1.1,0.8l0.3,0.6h-0.3c-0.6-0.3-0.8-0.6-0.8-0.8c-0.3,0-0.5,0.2-0.6,0.6l0.3,0.6
		c-0.2,0-0.5,0.1-0.8,0.3c-0.2,0-0.3-0.3-0.3-0.8h-0.6l-0.6,0.3l1.1,1.4c-0.4,0-0.9-0.2-1.7-0.6c-0.2,0.4-0.3,0.6-0.3,0.8l-1.7-1.7
		v-0.6c0-0.3,0.2-0.5,0.6-0.6c0-0.2-0.1-0.5-0.3-0.8c0-0.2,0.1-0.5,0.3-0.8c-0.2,0-0.5,0.1-0.8,0.3c-0.6-0.6-1.1-0.8-1.4-0.8
		c0-0.2,0.1-0.3,0.3-0.3c0-0.1-0.2-0.7-0.6-1.7c0-0.5,0.2-1.1,0.6-1.7c-0.3,0-0.5-0.2-0.6-0.6v-0.3c0.6,0,0.8-0.2,0.8-0.6
		c-0.6-0.9-0.8-1.6-0.8-2.2l0.3-0.6c-0.2,0-0.5-0.5-0.8-1.4h0.8c0.3,0,0.6,0.4,0.8,1.1l1.4-0.3c0.4,0.6,0.7,0.8,0.8,0.8h0.3
		c-0.1-0.6-0.6-1.2-1.4-1.9l-0.6,0.3h-0.3c-0.9-0.4-1.4-0.7-1.4-0.8c-1.7-0.9-2.8-1.7-3.3-2.2c0-0.8-0.6-1.4-1.9-1.7l-2.5-1.4
		c-0.2,0-0.5,0.1-0.8,0.3c-0.4,0-0.6-0.3-0.6-0.8H230c-0.3,0-0.5,0.2-0.6,0.6v0.3h0.3l0.6-0.3l0.3,0.6c-0.7,0.2-1,0.3-1.1,0.3v0.3
		l0.3,0.6c-0.4,0-0.8,0.1-1.1,0.3l-0.8-0.6h-0.3l-1.7,1.4l0.3,0.6c-1.7,0.4-2.5,0.8-2.5,1.4c-0.2,0-0.3-0.1-0.3-0.3
		c-0.7,0-1.4,0.5-1.9,1.4l-1.1-0.6c0,0.2-0.1,0.3-0.3,0.3c0,0.2,0.1,0.3,0.3,0.3c0,0.3-0.4,0.6-1.1,0.8c0-0.2-0.1-0.3-0.3-0.3h-0.3
		c-0.2,1-0.3,1.5-0.3,1.7l-1.1-0.6c-0.2,0-0.3,0.2-0.3,0.6l-0.6-0.3h-0.3v0.8l0.6,0.8c-0.7,1.1-1.2,1.6-1.7,1.7
		c0-0.3-0.2-0.5-0.6-0.6c-0.3,0-0.6,0.4-0.8,1.1c0,0.4,0.2,0.6,0.6,0.6c0,0.2-0.1,0.3-0.3,0.3c0.4,0.8,0.6,1.4,0.6,1.7
		c-0.4,0-0.8,0.1-1.1,0.3l0.3,0.6V60h-0.3l-0.6-0.3V60l1.1,1.4c-0.2,0-0.3,0.1-0.3,0.3V62l0.3,0.6c-0.3,0-0.5,0.2-0.6,0.6
		c1.1,0.9,1.7,1.5,1.7,1.7c0,0.4-0.2,0.6-0.6,0.6l0.6,1.4c-0.2,0-0.3,0.1-0.3,0.3l0.3,0.6l-0.6,0.3c0.4,0.7,0.8,1.1,1.4,1.1
		c0,0.4-0.1,0.8-0.3,1.1l0.8,1.7v0h-1.1v0.3c0.9,0.1,1.4,0.3,1.4,0.8c1.1,0.6,1.7,1,1.7,1.4c-0.2,0-0.3,0.1-0.3,0.3v0.3l1.4-0.3h0.3
		v0.3l-0.3,0.6L220,76v0.3c-0.6-0.4-1.1-0.6-1.7-0.6h-0.8V76c0,0.3,0.5,0.6,1.4,0.8l0.6-0.3c0.9,0.6,1.4,0.9,1.4,1.1h-0.6v0.6h0.3
		l0.8-0.6h0.3c0.5,0.9,1.2,1.4,2.2,1.4l-0.3,0.6v0.3c0.9,0,1.4,0.4,1.4,1.1c0.2,0,0.3-0.1,0.3-0.3l0.6,0.3h0.3v-0.6h0.3
		c0,0.4,0.4,0.8,1.1,1.1l-0.3,0.6c0.7,0.6,1.1,1,1.1,1.4c0.2,0,0.3-0.1,0.3-0.3l0.8,0.6h0.3v-0.6h0.6c0,0.5,1,1.3,3.1,2.2
		c0.8,0.3,1.6,1.1,2.2,2.2l1.4-0.3l0.3,0.6c0.9,1.3,1.4,2,1.4,2.2c2.6,1.7,3.9,2.8,3.9,3.3c0.2,0,0.3-0.1,0.3-0.3l0.6,0.3v0.8
		c0.3,0.7,0.6,1.1,0.8,1.1c0,0.3,0.5,0.9,1.4,1.9c0,0.3-0.2,0.8-0.6,1.4v0.3h0.8v-0.6h0.3l0.6,0.3c0,0.2-0.1,0.3-0.3,0.3
		c0.6,1.5,1.1,2.2,1.4,2.2c0,0.2-0.1,0.3-0.3,0.3c0,0.3,0.2,0.8,0.6,1.4l-0.6,1.1l0.3,0.6l-0.3,0.6c0,0.4,0.2,0.6,0.6,0.6
		c-0.3,0.6-0.9,1.1-1.7,1.4c0-0.2-0.1-0.3-0.3-0.3H246v0.3c0,0.3,0.5,0.6,1.4,0.8l0.6-0.3l0.3,0.6l-0.3,0.6c0.3,0,0.6,0.5,0.8,1.4
		l-0.3,0.6l0.3,0.6l-0.6-0.3v0.3l0.6,0.8h-0.6v0.6h0.6c0,0.4-0.5,0.7-1.4,0.8v1.7c-0.7,0.1-1.1,0.4-1.1,0.8l0.6,0.8l-1.7,1.9
		l0.3,0.6c-0.2,0-0.4,0.3-0.6,0.8l-0.6-0.3H244c0,0.2,0.1,0.5,0.3,0.8c-1.1,0.7-1.7,1.3-1.7,1.7l-0.8-0.6c0,0.2,0.1,0.5,0.3,0.8
		c0,0.4-0.4,0.6-1.1,0.6v0.3l0.3,0.6H241c-0.7,0.9-1.1,1.4-1.4,1.4c-0.3-0.2-0.7-0.3-1.1-0.3v0.8l0.3,0.6h-0.3l-1.9-0.3v1.1
		l-0.6-0.3l-0.6,0.3v-0.3c-0.4,0-0.9,0.3-1.7,0.8c-0.8-0.7-1.4-1.1-1.7-1.1c-0.2,0.3-0.3,0.8-0.3,1.4l-0.6-0.3H231v0.6
		c-0.3,0-0.5-0.2-0.6-0.6v-0.3h0.6v-0.8c-0.4,0-0.9,0.2-1.7,0.6l0.3,1.4v0.3c-0.6,0-1.1-0.1-1.4-0.3l-1.7,0.3h-0.8l-1.4-0.3v0.6
		h-0.6c0-0.4-0.1-0.8-0.3-1.1c0.2,0,0.4-0.3,0.6-0.8v-0.3l-0.6,0.3h-0.3v-0.6h-0.6c-0.6,0.6-0.8,1.2-0.8,1.7h-1.1V128l-1.4,0.3
		c0-0.2-0.1-0.5-0.3-0.8c-0.2,0-0.3,0.1-0.3,0.3l-0.6-0.3h-1.9l-1.4-0.3c-1.5-0.8-2.2-1.5-2.2-2.2h-0.6v0.6h-0.8v-0.3
		c-3.2-2.6-4.7-4.2-4.7-4.7c0.2,0,0.4-0.3,0.6-0.8c-0.5,0-0.7-0.4-0.8-1.1l0.3-0.6v-0.6c-0.2,0-0.3,0.1-0.3,0.3
		c-0.3,0-0.5-0.2-0.6-0.6h0.3c0-1.1-0.3-1.7-0.8-1.7c-0.2-2.8-0.5-4.4-0.8-5h0.3l-0.6-0.8c0-0.3,0.4-0.6,1.1-0.8
		c0-0.4-0.4-0.6-1.1-0.6l0.6-0.8c0-0.3-0.2-0.5-0.6-0.6c0-0.3,0.2-0.5,0.6-0.6l-1.1-1.7v-0.8c0.8,0,1.4-0.1,1.7-0.3
		c0,0.2,0.1,0.3,0.3,0.3h0.6l0.6-0.3c0,0.2,0.4,0.4,1.1,0.6v-0.3c0.7,0,1.1,0.3,1.1,0.8h0.6c0.4,0,0.6-0.2,0.6-0.6
		c0.6,0.6,1.1,0.8,1.4,0.8v0.6h-0.6v0.3c0.4,0,0.9,0.5,1.4,1.4v0.6l-0.3,1.4l0.6,0.3c0-0.6,0.2-0.8,0.6-0.8h0.3
		c0,0.5,0.2,0.9,0.6,1.4v0.6h-0.6v0.3c0.6,0,1.1,0.5,1.7,1.4v-0.6h1.4v0.3c0,0.4-0.2,0.6-0.6,0.6c0,0.4,0.2,0.6,0.6,0.6h0.3l0.6-0.3
		c0,0.2,0.3,0.4,0.8,0.6v0.6H218v-0.6h-0.6l0.3,1.1h0.8l0.6-0.3c0,0.2,0.1,0.3,0.3,0.3l0.6-0.3c0,0.7,0.8,1.1,2.5,1.1l-0.3,0.6v0.3
		h1.1l0.6-0.3c0,0.2,0.3,0.4,0.8,0.6c0.2,0,0.3-0.2,0.3-0.6h0.6c0.2,1.1,0.6,1.7,1.4,1.7l0.3-0.6c0-0.4-0.3-0.6-0.8-0.6v-0.3h0.3
		l0.6,0.3l0.6-0.3c0.4,0,0.6,0.2,0.6,0.6c1.2-0.4,1.9-0.6,2.2-0.6l1.4,0.3c0-0.4,0.4-0.8,1.1-1.4c0.2,0,0.3,0.1,0.3,0.3l2.2-1.4
		l-0.3-0.6h1.1v-0.3H236c0-0.3,0.2-0.5,0.6-0.6v0.6h0.6v-0.3c0-0.3-0.2-0.5-0.6-0.6c0.2-1.6,0.6-2.7,1.1-3.3v-0.3l-0.3-0.6h0.3
		c0-0.4-0.1-0.8-0.3-1.1c0-2.6-0.7-3.9-1.9-3.9l0.3-0.6c-0.4-0.4-0.6-1-0.6-1.7h-0.3l-0.6,0.3c0-0.2,0.1-0.5,0.3-0.8
		c0-0.2-0.1-0.5-0.3-0.8c0.2,0,0.3-0.1,0.3-0.3s-0.4-0.6-1.1-1.1c-0.7-1.9-1.7-2.8-2.8-2.8v-0.3h0.6v-0.3L231,94
		c-1.1,0.6-1.7,1-1.7,1.4H229c-3.8-2.8-6.1-4.2-7-4.2c0-0.2,0.1-0.3,0.3-0.3c-0.9-1-1.4-1.6-1.4-1.7h-0.8c-1.1-0.5-1.7-0.9-1.7-1.1
		c-0.2,0-0.3,0.1-0.3,0.3l-0.8-0.6l0.3-0.6l-0.6-0.8c-0.4,0-0.6,0.3-0.6,0.8c-0.4-0.2-0.6-0.3-0.8-0.3l0.3-0.6
		c-1.3-1.1-2.4-2.1-3.3-3.1c0-0.2,0.1-0.5,0.3-0.8l-0.3-1.1c-1.3-0.3-1.9-0.6-1.9-1.1l0.3-0.6c-1.1-1.1-2.4-2.8-3.9-5
		c0-0.2,0.1-0.5,0.3-0.8c0-0.8-0.3-1.7-0.8-2.5c0.3,0,0.7-0.2,1.1-0.6l-0.8-1.7v-0.8h0.8v-0.8l-0.6,0.3c0-0.4-0.1-0.8-0.3-1.1h0.8
		l1.4,0.3v-0.3c0-0.6-0.9-1-2.8-1.1v-0.3l1.4-0.3v-0.3l-0.6-0.8l-0.6,0.3h-0.3v-0.3c0-0.3,0.2-0.5,0.6-0.6L206,62v-0.3h0.8v-0.3
		l-0.6-0.8c0-0.4,0.3-0.6,0.8-0.6l-0.3-0.6v-0.8c0-0.3,0.2-0.5,0.6-0.6c0-0.2-0.1-0.3-0.3-0.3c0-0.6,0.5-0.8,1.4-0.8
		c-0.7-0.9-1.1-1.4-1.4-1.4c0-2.2,0.6-3.3,1.7-3.3V52c-0.5,0-0.7-0.4-0.8-1.1c0.4,0,0.6-0.2,0.6-0.6l-0.6-0.8
		c0.9-1.5,1.7-2.2,2.2-2.2V47l-0.3-0.6c0.2,0,0.5,0.1,0.8,0.3l0.8-0.6l-0.3-0.6c0.5-0.7,1-1.1,1.4-1.1c0-1.3,0.7-1.9,1.9-1.9
		c0.2-0.8,0.9-1.4,1.9-1.7c1.5-1.3,2.6-1.9,3.3-1.9c0-0.9,0.7-1.6,2.2-1.9l1.1,0.3c0.4-0.7,0.7-1.1,0.8-1.1h1.1l0.8,0.6l0.6-0.3
		l-0.3-0.6h0.6v0.8h0.6l-0.3-1.4c0.7,0,1.1-0.1,1.1-0.3C228.3,34.8,229.5,34.6,231.9,34.5z M206.6,62.8h0.6v-0.3h-0.6V62.8z
		 M207.1,58.9c0,0.4,0.2,0.6,0.6,0.6h1.1c0-0.3-0.2-0.5-0.6-0.6l-0.6,0.3v-0.6H207v0.3H207.1z M207.4,61.2h0.8v-0.6h-0.8V61.2z
		 M208,68.9h0.3c0-0.3-0.2-0.5-0.6-0.6h-0.3C207.4,68.8,207.6,68.9,208,68.9z M208,55.6h0.3V55H208V55.6z M208.8,109.5l0.6-0.3
		c-0.3-0.6-0.6-0.8-0.8-0.8H208L208.8,109.5z M208.2,72h0.3v-0.6h-0.3V72z M208.5,63.9c0,0.4,0.2,0.6,0.6,0.6h0.3v-0.3
		c0-0.3-0.2-0.5-0.6-0.6h-0.3V63.9z M208.5,65.9h0.6v-0.3h-0.6V65.9z M208.8,52h0.6c0-0.3-0.2-0.5-0.6-0.6V52z M208.8,59.8l0.3,0.6
		c0.3,0,0.8-0.2,1.4-0.6l0.3,0.6V61l-0.3,0.6l-0.8-0.6l-0.6,0.3l0.6,1.1c0.3,0,1-0.4,1.9-1.1v-0.6H211c0-0.2,0.1-0.3,0.3-0.3
		c-0.9-0.8-1.4-1.5-1.4-1.9h-0.6C209.3,58.7,209.2,59.2,208.8,59.8z M208.8,70.6h0.8V70h-0.8V70.6z M209.1,117.3h0.6V117h-0.6V117.3
		z M209.3,52.3v0.3h0.6l0.6-0.3c0-0.3-0.2-0.5-0.6-0.6C209.6,51.7,209.4,51.9,209.3,52.3z M210.5,65.9c-0.3,0-0.6,0.2-1.1,0.6
		l0.3,0.6c0.4-0.4,1-0.6,1.7-0.6v-0.6c-0.5-0.9-0.8-1.4-1.1-1.4H210C209.9,64.8,210.1,65.3,210.5,65.9z M209.3,75.9
		c0,0.4,0.2,0.6,0.6,0.6v-1.1h-0.6V75.9z M209.3,112.6h0.6V112h-0.6V112.6z M210.2,114v-0.6h-0.6C209.6,113.8,209.8,114,210.2,114z
		 M209.6,115.9c0,0.4,0.2,0.6,0.6,0.6h0.3c-0.3-0.6-0.6-0.8-0.8-0.8v0.2H209.6z M209.9,111.2c0,0.4,0.2,0.6,0.6,0.6l0.6-0.3
		c0-0.3-0.2-0.5-0.6-0.6h-0.6V111.2z M209.9,121.8c0,0.4,0.2,0.6,0.6,0.6h0.6v-0.3c0-0.3-0.2-0.5-0.6-0.6L209.9,121.8z M210.2,78.4
		c0,0.4,0.2,0.6,0.6,0.6s0.6-0.2,0.6-0.6v-0.3h-1.1v0.3H210.2z M210.2,110.7h0.6c0-0.3-0.2-0.5-0.6-0.6V110.7z M210.5,74.5h0.6
		c0.3,0.7,0.9,1.2,1.7,1.4c0.4,0,0.6-0.2,0.6-0.6c0-0.3-0.2-0.5-0.6-0.6h-0.3l-0.6,0.3c0-0.6-0.4-0.9-1.1-1.1h-0.3L210.5,74.5
		L210.5,74.5z M210.5,76.7h0.6v-0.3h-0.6V76.7z M210.7,55.9v0.6l1.1-0.3v-0.8h-0.6C211,55.3,210.8,55.5,210.7,55.9z M211.3,80.6h0.3
		V80h-0.8C210.7,80.4,210.9,80.6,211.3,80.6z M211,107.6l0.6-0.3c0-0.3-0.2-0.5-0.6-0.6V107.6z M211.3,61.7c0,0.4,0.2,0.6,0.6,0.6
		h0.3V62l-0.3-0.6L211.3,61.7z M211.3,74l0.6-0.3c0-0.3-0.2-0.5-0.6-0.6V74z M211.8,122.3l0.3,0.6c-0.6,0-0.8,0.2-0.8,0.6
		s0.2,0.6,0.6,0.6h0.3l0.3-1.4c0-0.3-0.2-0.5-0.6-0.6v0.2H211.8z M211.6,47.3h0.6V47h-0.6V47.3z M211.8,76.7h0.6
		c0-0.3-0.2-0.5-0.6-0.6V76.7z M212.4,57c0,0.4,0.2,0.6,0.6,0.6h0.3v-0.3c0-0.3-0.2-0.5-0.6-0.6h-0.3V57z M213.5,77.6l1.4,0.3h0.3
		v-0.6l-1.4-0.3h-0.3V77.6z M215.2,55.9v0.3h-0.6v-0.3H215.2z M215.2,75.6V75h-0.6C214.6,75.4,214.8,75.6,215.2,75.6z M215.2,50.9
		c0,0.4,0.2,0.6,0.6,0.6v-0.8h-0.6V50.9z M215.2,76.2h1.1v-0.6l-0.6,0.3l-0.6-0.3v0.6H215.2z M215.2,79.8h0.3v-0.6h-0.3V79.8z
		 M215.5,124.8h0.3v-0.6h-0.3V124.8z M216,117.1h0.3v-0.6H216V117.1z M216.6,117.9c0,0.4,0.2,0.6,0.6,0.6h0.3v-0.3l-0.3-0.6
		L216.6,117.9z M217.1,48.6c0.3,0.6,0.6,0.8,0.8,0.8v-0.6l-0.3-0.6L217.1,48.6z M217.1,125.1l0.3,0.6l0.6-0.3
		c-0.2-0.4-0.3-0.6-0.3-0.8h-0.6V125.1z M217.4,126.5h0.3V126h-0.3V126.5z M217.7,121.2h0.6c0-0.3-0.2-0.5-0.6-0.6V121.2z M218,41.1
		h0.6v-0.3H218V41.1z M218,125.1h0.8v-0.6h-0.3C218.2,124.6,218,124.7,218,125.1z M218.8,40.3v-0.6h-0.6
		C218.2,40.1,218.4,40.3,218.8,40.3z M218.2,85.6h0.3V85h-0.3V85.6z M218.2,116.5l1.4-0.3v-0.3h-0.8
		C218.5,115.9,218.3,116.1,218.2,116.5z M218.5,45.9h0.3v-0.6h-0.3V45.9z M218.5,86.5h0.6c0-0.3-0.2-0.5-0.6-0.6V86.5z M218.8,41.7
		c0,0.4,0.2,0.6,0.6,0.6L220,42c0-0.3-0.2-0.5-0.6-0.6L218.8,41.7z M219.1,119h0.6v-0.6h-0.6V119z M219.4,87.6l0.3,0.6l0.8-0.6
		c0-0.3-0.2-0.5-0.6-0.6h-0.6v0.6H219.4z M220.5,45.3h0.6V45h-0.6V45.3z M220.7,39.2h0.3v-0.6h-0.3V39.2z M221.6,126.5h0.6v-0.3
		h-0.6V126.5z M222.1,40.3l0.3,0.6c0.4,0,0.6-0.2,0.6-0.6V40h-0.8v0.3H222.1z M222.1,90.9v0.3h0.6l0.6-0.3c0-0.3-0.2-0.5-0.6-0.6
		C222.4,90.4,222.2,90.5,222.1,90.9z M222.4,117.3h0.6V117h-0.6V117.3z M222.7,38.9h0.8v-0.6h-0.3C222.9,38.4,222.8,38.5,222.7,38.9
		z M222.7,118.4c0,0.4,0.2,0.6,0.6,0.6v-0.8h-0.6V118.4z M223.2,127.6v0.3h-0.6v-0.3H223.2z M223,122.1h0.6v-0.6
		C223.2,121.5,223,121.7,223,122.1z M223.2,81.7h0.6v-0.6h-0.6V81.7z M223.2,84.5h0.8V84h-0.8V84.5z M224.1,42v-0.6h-0.6
		C223.5,41.8,223.7,42,224.1,42z M223.8,118.4h0.3v-0.6h-0.3V118.4z M224.9,119.6h0.6v-0.8h-0.6V119.6z M226,117.9v0.8h0.3
		c0.6-0.3,0.8-0.6,0.8-0.8c0-0.3-0.2-0.5-0.6-0.6C226.6,117.7,226.4,117.9,226,117.9z M226.3,119.6h0.3V119h-0.3V119.6z
		 M226.9,122.3h0.6c0-0.3-0.2-0.5-0.6-0.6h-0.6C226.3,122.2,226.5,122.3,226.9,122.3z M226.3,125.7h0.3c0.4,0,0.6-0.2,0.6-0.6h-0.8
		v0.6H226.3z M226.9,84.2h0.6l-0.3-1.1h-0.6L226.9,84.2z M226.9,120.7c0,0.4,0.2,0.6,0.6,0.6v-0.8h-0.6V120.7z M227.4,40.6
		c0,0.4,0.2,0.6,0.6,0.6h0.3v-0.3c0-0.3-0.2-0.5-0.6-0.6h-0.3V40.6z M228.5,46.7c0,0.4-0.2,0.6-0.6,0.6h-0.6v-0.6H228.5z
		 M228.8,123.7l1.9,0.6c0.4,0,0.6-0.2,0.6-0.6v-0.3l-2.5-0.3V123.7z M229.6,95.1v0.8l-0.6-0.3C229.1,95.3,229.3,95.1,229.6,95.1z
		 M229.9,39.2h0.6v-0.3h-0.6V39.2z M231,95.6l-0.3,0.6c0.7,0,1.1,0.3,1.1,0.8h-1.4v-0.3l0.3-0.6c-0.3,0-0.5-0.2-0.6-0.6L231,95.6
		L231,95.6z M231,45.9v0.6h-0.3v-0.6H231z M230.8,121.8h0.3v-0.6h-0.3V121.8z M231.3,122.9c0.4,0,0.6-0.2,0.6-0.6H231L231.3,122.9z
		 M231.3,125.7h0.6c0-0.3-0.2-0.5-0.6-0.6V125.7z M231.6,121.8l0.6,0.8l0.6-0.3l-0.6-0.8L231.6,121.8z M231.9,89.2h0.6V89h-0.6V89.2
		z M231.9,125.4h0.3c0.4,0,0.6-0.2,0.6-0.6H232v0.6H231.9z M233,122.1h0.6v-0.3H233V122.1z M234.1,45.9v0.3h-0.6v-0.3H234.1z
		 M233.5,121.2h0.6v-0.3h-0.6V121.2z M234.4,51.4v0.3 M234.4,99.5h0.6v-0.3h-0.6V99.5z M234.9,37.2h0.6V37h-0.6V37.2z M236.9,101.2
		c0.4,0,0.6-0.2,0.6-0.6h-0.6V101.2z M236.9,113.7h0.3v-0.6h-0.3V113.7z M237.2,122.3c0,0.4,0.2,0.6,0.6,0.6h0.6v-0.3
		c0-0.3-0.2-0.5-0.6-0.6L237.2,122.3z M237.4,47.3c0.8,0,1.4,0.1,1.7,0.3c0-0.2,0.1-0.3,0.3-0.3c0-0.3-0.2-0.5-0.6-0.6l-0.6,0.3
		c0-0.2-0.1-0.3-0.3-0.3h-0.6v0.6H237.4z M237.7,45c0,0.4,0.2,0.6,0.6,0.6h0.3v-0.8h-0.8V45H237.7z M238.5,46.7v-0.6H238
		C238,46.5,238.2,46.7,238.5,46.7z M238.5,98.7h0.6v-0.6h-0.6V98.7z M238.5,109.8c0,0.4,0.2,0.6,0.6,0.6h0.3v-0.8h-0.3L238.5,109.8z
		 M241.6,47l0.6-0.8c-1.1-0.7-1.7-1.1-1.7-1.4h-0.3l-0.6,0.3v-0.8h-0.8C238.8,44.9,239.7,45.8,241.6,47z M238.8,119.8h0.6v-0.3h-0.6
		V119.8z M238.8,121.2h0.8v-0.3h-0.8V121.2z M239.1,124.6h0.3V124h-0.3V124.6z M240.8,61.2c0,0.6,0.2,0.8,0.6,0.8l-0.6,1.1
		c0.2,0,0.5,0.1,0.8,0.3c0,0.4-0.2,0.6-0.6,0.6l0.3,0.6h-0.8c-0.7-1.2-1.1-2.1-1.1-2.5c0.6,0,0.8-0.3,0.8-0.8L240.8,61.2L240.8,61.2
		z M239.4,99.3c0.4,0.5,0.6,0.8,0.6,1.1h0.6v-0.3c-0.5-0.7-0.8-1.1-1.1-1.1v0.3H239.4z M239.9,95.9c0.3,0,0.7,0.2,1.1,0.6v-0.3
		c-0.3-0.6-0.6-0.8-0.8-0.8h-0.3V95.9z M239.9,103.7h0.6v-0.3h-0.6V103.7z M240.2,49.2c0.4,0,0.6-0.2,0.6-0.6h-0.6V49.2z
		 M240.2,104.3v0.3h0.6v-0.8C240.5,103.7,240.3,103.9,240.2,104.3z M240.8,53.7V54c0.7-0.5,1.1-0.8,1.1-1.1h-0.3
		C241,53.1,240.8,53.4,240.8,53.7z M241,49.8h0.3v-0.6H241V49.8z M241,107.3l1.1-0.3v-0.6h-0.3C241.3,106.8,241,107,241,107.3z
		 M241.3,43.1h0.6v-0.3h-0.6V43.1z M241.3,56.4h0.3v-0.6h-0.3V56.4z M241.3,58.7h0.6v-0.6h-0.6V58.7z M241.3,97h0.6v-0.3h-0.6V97z
		 M241.3,103.2c0,0.2,0.1,0.3,0.3,0.3l-0.3,0.6v0.6c0.2,0,0.5,0.1,0.8,0.3c0.7-0.4,1.1-0.6,1.1-0.8v-0.6c0-0.3-0.2-0.5-0.6-0.6
		L241.3,103.2z M241.6,45h0.8l-0.3-0.6C241.9,44.5,241.7,44.7,241.6,45z M241.6,48.4c0.3,0,0.7,0.2,1.1,0.6v-0.3l-0.6-0.8
		C241.9,47.8,241.7,48,241.6,48.4z M241.6,98.7h0.6v-0.3h-0.6V98.7z M241.6,109.8c0,0.4,0.2,0.6,0.6,0.6v-0.8L241.6,109.8z
		 M242.7,103.7v0.3h-0.8v-0.3H242.7z M242.2,60h0.8l-0.3-0.6C242.4,59.5,242.2,59.7,242.2,60z M242.4,119.3h0.6
		c0-0.3-0.2-0.5-0.6-0.6V119.3z M243.3,104.8h0.3l0.6-0.3c0,0.2,0.1,0.3,0.3,0.3v-0.6h-1.1v0.6H243.3z M243.6,61.7h0.6v-0.6h-0.6
		V61.7z M243.8,60.3h0.6v-0.6h-0.6V60.3z M243.8,102.6h0.6v-0.3h-0.6V102.6z M244.1,119h0.3v-0.6h-0.3V119z M244.7,56.7
		c0,0.4,0.2,0.6,0.6,0.6v-0.6l1.1,0.6c0.4,0,0.6-0.2,0.6-0.6c-0.5-0.7-0.8-1.1-1.1-1.1h-0.3C245.5,56.3,245.2,56.7,244.7,56.7z
		 M244.7,110.1l0.3,0.6l1.1-0.3l-0.3-0.6C245.5,110,245.1,110.1,244.7,110.1z M244.9,52h0.6v-0.6h-0.6V52z M244.9,60
		c0.4,0,0.6,0.3,0.6,0.8c0.7,0,1.4-0.1,2.2-0.3V60H246l-0.8-0.6h-0.3L244.9,60L244.9,60z M244.9,107.3h0.3v-0.6h-0.3L244.9,107.3
		L244.9,107.3z M245.8,42.5h0.6v-0.3c0-0.3-0.2-0.5-0.6-0.6V42.5z M247.2,64.2v0.3c0,0.4-0.2,0.6-0.6,0.6h-0.3
		c0-0.2-0.1-0.5-0.3-0.8L247.2,64.2L247.2,64.2z M246.3,104.5c0,0.4,0.2,0.6,0.6,0.6c0-0.2,0.1-0.5,0.3-0.8c0-0.3-0.2-0.5-0.6-0.6
		h-0.3V104.5z M247.2,50.3h0.6V50h-0.6V50.3z M248.8,64.8v0.3h-1.1v-0.3H248.8z"/>
	<path d="M260.3,28.2c0,0.7-0.3,1.1-0.8,1.1v2.5l0.8,1.1l-0.3,0.6l0.3,0.6l-0.3,1.7v0.3c0.1,0.4,0.2,0.6,0.6,0.6L260,40l0.6,0.3
		l-0.8,2.5l0.6,0.3l-0.3,1.4v0.8h0.6v0.3c0,0.2-0.4,0.5-1.1,0.8c0.3,1.5,0.7,2.2,1.1,2.2l-0.6,1.1h0.3c0.4-0.2,0.6-0.3,0.8-0.3v0.3
		l0.6-0.3h0.3c0,0.4,0.5,0.8,1.4,1.4V51c0.6,0,0.8-0.1,0.8-0.3c2.1,0.2,4.1,0.6,5.8,1.4c2-0.2,3.1-0.6,3.1-1.1h0.8l1.4,0.8
		c0.4-0.2,0.6-0.3,0.8-0.3c0.4,1.9,1.1,3.1,1.9,3.6h-0.3l0.8,1.4h-1.1l0.3,0.6v0.3c0,0.4-0.2,0.6-0.6,0.6c0-0.2-0.1-0.3-0.3-0.3V58
		c0.7,1,1.1,1.9,1.1,2.8c-0.2,0-0.3,0.1-0.3,0.3s0.1,0.5,0.3,0.8c-0.2,1.5-0.5,2.2-0.8,2.2l0.3,0.6c-0.2,0.4-0.3,0.6-0.3,0.8
		l0.3,0.6l-0.3,0.6c0.2,0.3,0.3,0.7,0.3,1.1c-0.2,0-0.3,0.1-0.3,0.3c0.4,0,0.6,0.2,0.6,0.6v0.8c-0.6,0-0.8,0.2-0.8,0.6l0.6,0.8
		c-0.7,0-1.1,0.2-1.1,0.6c0.2,0.3,0.3,0.7,0.3,1.1h-0.3l0.3,0.6c-0.2,0.3-0.3,0.7-0.3,1.1c0.3,0,0.6,0.3,0.8,0.8v0.3L277,76
		c0.6,0,0.8,0.2,0.8,0.6c-0.4,0-0.6,0.2-0.6,0.6v0.6l0.6,0.8v0.6c-0.7,0-1.2,0.4-1.7,1.1l0.3,0.6v2.8c0,0.4,0.4,0.6,1.1,0.6v0.6
		h-1.4c0,1.9,0.5,2.8,1.4,2.8v0.6c-0.2,0-0.5,0.1-0.8,0.3l0.3,0.6c0,0.2-0.1,0.3-0.3,0.3l0.3,0.6v0.3h-0.6l0.3,1.4
		c-0.4,0-0.6,0.2-0.6,0.6c0.4,0.6,0.6,1.1,0.6,1.7h-0.3c0.2,0.9,0.4,1.4,0.6,1.4c-0.3,0.9-0.6,2-0.8,3.3c0.2,0.3,0.3,0.7,0.3,1.1
		h-0.3l0.3,0.6c-0.2,1-0.3,1.9-0.3,2.5c0.2,0,0.3,0.1,0.3,0.3c-0.2,0-0.5,0.1-0.8,0.3l0.3,0.6v0.6c0,0.2-0.1,0.3-0.3,0.3l0.3,0.6
		v0.3h-0.6l0.3,0.6c0,0.2-0.1,0.3-0.3,0.3l0.3,0.6c-0.2,0.4-0.3,0.6-0.3,0.8c0.4,0,0.6,0.2,0.6,0.6c-0.4,0-0.6,0.2-0.6,0.6
		c0.1,0.4,0.2,0.6,0.6,0.6c-0.2,1.6-0.5,2.6-0.8,3.1c0.3,0,0.6,0.4,0.8,1.1c-0.2,0.4-0.3,0.6-0.3,0.8c0.2,0,0.3,0.1,0.3,0.3
		c-0.2,0-0.3,0.1-0.3,0.3c0.4,0.2,0.6,0.3,0.8,0.3v0.3c0,0.6-0.4,0.8-1.1,0.8l0.6,0.8l-0.3,0.6c0.6,0,0.8,0.2,0.8,0.6
		c0,0.3-0.3,0.6-0.8,0.8c0-0.2-0.1-0.3-0.3-0.3v0.3c0,0.4,0.1,0.8,0.3,1.1c-0.2,0.4-0.3,0.6-0.3,0.8l0.6,0.3l-0.3,0.6v0.3
		c0,0.5,0.7,0.8,2.2,1.1v0.8h-0.6c-0.4,0-0.6-0.2-0.6-0.6l-1.7,0.3c0,0.5,0.2,1.1,0.6,1.7l-0.3,0.6c0.2,0.4,0.3,0.6,0.3,0.8
		c-0.2,0.4-0.3,0.6-0.3,0.8c0.2,0,0.3,0.1,0.3,0.3l0.6-0.3h0.6l0.6,0.3V126c0.4,0.2,0.6,0.3,0.8,0.3c0.6-0.4,1.2-0.6,1.7-0.6
		l1.4,0.3c0.1-0.4,0.2-0.6,0.6-0.6l1.4,0.3v-0.6h0.3l1.4,0.8c0.2-0.3,0.3-0.7,0.3-1.1h0.3c0,0.6,0.2,0.8,0.6,0.8
		c0-0.3,0.4-0.6,1.1-1.1h0.3v0.6h0.6v-0.6h-0.6v-0.6h0.6V123h-0.3c-0.4,0.2-0.6,0.3-0.8,0.3l-0.6-0.8l0.6-0.3l1.4,0.3l-0.3-0.6
		l0.3-1.9l-0.3-1.7c0.2-0.4,0.3-0.6,0.3-0.8c-0.1-0.9-0.6-1.6-1.7-2.2c1.1-0.5,1.7-1.7,1.7-3.6c-0.2-0.4-0.3-0.6-0.3-0.8h0.3
		c-0.2-0.7-0.5-1.4-0.8-1.9c0.3,0,0.6-0.5,0.8-1.4c-0.2-0.4-0.3-0.6-0.3-0.8c0.4,0,0.6-0.2,0.6-0.6l-0.3-1.1
		c0.2-0.3,0.3-0.7,0.3-1.1c-0.4,0-0.6-0.2-0.6-0.6c0.4,0,0.6-0.2,0.6-0.6c0-0.9-0.5-2.3-1.4-4.2c0-0.8,0.3-1.7,0.8-2.5
		c-0.5-0.4-0.8-0.6-1.1-0.6v-0.6c0.6,0,0.8-0.5,0.8-1.4H287V93c0.6,0,0.8-0.1,0.8-0.3l-0.8-1.4v-0.6c0.6,0,0.8-0.5,0.8-1.4
		c-0.3-0.2-0.7-0.3-1.1-0.3v-0.8c0.1,0,0.5-0.1,1.1-0.3l-0.6-2.8h0.6l-1.1-3.1c0-0.2,0.1-0.3,0.3-0.3c-0.4-1.2-0.6-1.9-0.6-2.2
		c0.4,0,0.6-0.2,0.6-0.6l-0.6-0.8c0.4-0.2,0.6-0.3,0.8-0.3l-1.1-1.1c0.2-0.9,0.5-1.4,0.8-1.4c-0.2-0.4-0.3-0.6-0.3-0.8l0.3-1.4h-1.1
		v-0.3c1.1-0.3,1.7-0.9,1.7-1.9c-0.2,0-0.6-0.6-1.1-1.7V69h0.6v-0.8l-0.6-0.8c0.4-0.6,0.6-1.1,0.6-1.4c-0.4,0-0.6-0.2-0.6-0.6v-0.3
		c0-0.4,0.3-0.6,0.8-0.6L287,64v-0.6c0.6,0,0.8-0.3,0.8-0.8c-0.2-0.4-0.3-0.6-0.3-0.8l0.3-1.1c0-0.6-0.3-0.8-0.8-0.8v-0.3l0.6-0.8
		v-0.3H287v-0.8c0.9,0,1.4-0.6,1.4-1.9c-0.4,0-0.6-0.3-0.6-0.8c0.7-1.4,1.1-2.1,1.1-2.2l-0.3-1.4l0.8-1.4c-0.4,0-0.6-0.2-0.6-0.6V49
		l1.4,0.3c0.4,0,0.6-0.2,0.6-0.6l0.6,0.3h1.1c2.7-1.9,4.3-2.8,4.7-2.8c0,0.6,0.4,0.8,1.1,0.8l1.7-0.3V47l0.6-0.3h1.1l0.6,0.3
		l0.6-0.8c-0.9-0.2-1.4-0.5-1.4-0.8c1.1-0.7,1.7-1.2,1.7-1.4v-1.1c-0.6,0.7-1,1.1-1.4,1.1c-0.7-0.3-1.1-0.6-1.1-0.8
		c1.2,0,1.9-0.3,1.9-0.8v-0.8c0.6,0,0.8-0.4,0.8-1.1c-0.9-0.5-1.4-0.9-1.4-1.1v-0.6h0.6V38l-0.6-0.8c0-0.5,0.5-0.8,1.4-0.8l-0.3-1.9
		v-1.7c-0.4,0-0.8-0.6-1.1-1.7l0.3-1.7c-0.2,0-0.3-0.1-0.3-0.3c-1,0.2-1.8,0.3-2.2,0.3l-1.4-0.3v0.6h0.6c0,0.4-0.2,0.6-0.6,0.6
		c0-0.4-0.2-0.6-0.6-0.6c-0.2,0.4-0.3,0.6-0.3,0.8c-0.5,0-0.7-0.4-0.8-1.1h-0.3c0,0.2-0.1,0.5-0.3,0.8l-1.4-0.8l-0.8,0.6
		c-0.7-0.6-1.3-0.8-1.9-0.8V30h-1.1c-0.6,0-1.6-0.3-3.1-0.8l-0.3,0.6l0.3,0.6h-0.3l-1.4-0.8c0,0.4-0.2,0.6-0.6,0.6l-0.8-0.6h-0.3
		v0.6c-0.7-0.8-2.3-1.4-4.7-1.7l-0.6,0.3h-0.8l-0.3,0.6l-1.4-0.3c-1.9,0.1-2.8,0.4-2.8,0.8c-0.9-0.2-1.4-0.4-1.4-0.6
		c-2,0.2-3.1,0.4-3.1,0.6c-0.4-0.2-0.6-0.3-0.8-0.3c-0.6,0.4-1.1,0.6-1.4,0.6v0.3l0.3,0.6h-0.3c-0.5-0.6-1-0.8-1.7-0.8V29h-0.3
		l-1.1,1.1l-0.3-0.6c0.4,0,0.6-0.2,0.6-0.6c-1.2-0.6-2-0.8-2.5-0.8L260.3,28.2L260.3,28.2z M261.2,36.5c0.4,0,0.6,0.2,0.6,0.6h-0.6
		V36.5z M269,44h0.3c0.4,0,0.6,0.2,0.6,0.6H269V44z M274.5,50.7h0.3c0.3,0,0.6,0.3,0.8,0.8h-0.3c-0.4-0.2-0.6-0.3-0.8-0.3V50.7z
		 M274.5,124.4v0.3h0.6v-0.3H274.5z M274.5,126.9v0.3h0.6v-0.3H274.5z M275.3,41.8h0.3v0.6h-0.3V41.8z M276.7,123.5h0.3v0.3
		c0,0.4-0.2,0.6-0.6,0.6l-0.3-0.6L276.7,123.5z M276.5,30.9h0.6v0.3h-0.6V30.9z M278.7,117.4h0.3l-0.3,1.4c0.2,0,0.7,0.6,1.4,1.7
		l-0.6,0.3h-0.3c0-0.6-0.8-1.5-2.5-2.8C277.6,118,278.3,117.8,278.7,117.4z M277.6,114.1h0.6v0.3h-0.6V114.1z M277.8,72.4h0.6v0.3
		h-0.6V72.4z M278.1,70.4h0.6v0.8h-0.6V70.4z M279,68.2h0.3c0.4,0,0.6,0.2,0.6,0.6h-0.3C279.1,68.8,279,68.6,279,68.2z M279.5,104.9
		h0.3v0.6H279C279,105.1,279.2,104.9,279.5,104.9z M279.5,106.3h0.3v0.6h-0.3V106.3z M280.1,124.7c0.4,0,0.6,0.2,0.6,0.6v0.3h-0.6
		V124.7z M280.4,88.8h0.3c1.1,0.1,1.7,0.4,1.7,0.8v0.3c-0.2,0-0.5,0.1-0.8,0.3l-0.3-0.6c0.2,0,0.3-0.1,0.3-0.3h-1.1v-0.5H280.4z
		 M280.4,121h0.6c0.3,0,0.6,0.3,0.8,0.8l-0.6,0.3c0-0.4-0.3-0.6-0.8-0.6V121z M280.9,111.9h0.6v0.3h-0.6V111.9z M281.2,53.5
		c0.4,0,0.6,0.2,0.6,0.6h-0.6V53.5z M281.7,61.8l0.3,0.6V63h-0.3c-0.4,0-0.6-0.2-0.6-0.6C281.2,62,281.4,61.8,281.7,61.8z
		 M281.5,50.1h0.6v0.6h-0.6V50.1z M281.5,82.1h0.3c0.4,0,0.6,0.2,0.6,0.6l-0.6,0.3l-0.3-0.6V82.1z M281.7,65.4
		c0.4,0,0.6,0.2,0.6,0.6v0.3c-0.4,0-0.6-0.2-0.6-0.6V65.4z M282.6,67.6h0.3v0.6h-0.3V67.6z M283.7,59.3h0.6v0.3h-0.6V59.3z
		 M284.2,52.6c0.4,0,0.6,0.2,0.6,0.6h-0.6V52.6z M284.2,114.6h0.3v0.6h-0.3V114.6z M284.8,59h0.6c0,0.4-0.2,0.6-0.6,0.6V59z
		 M285.1,60.1h0.3c0.4,0,0.6,0.2,0.6,0.6l-0.6,0.3h-0.3V60.1z M285.1,116.3c0.4,0,0.6,0.2,0.6,0.6l-0.6,0.3V116.3z M285.4,67.9h0.8
		v0.6h-0.8V67.9z M285.6,32.6h0.8v0.6h-0.8V32.6z M285.6,87.4h0.3V88h-0.3V87.4z M285.6,115.2h0.3c0.4,0,0.6,0.2,0.6,0.6h-0.3
		C285.8,115.8,285.6,115.6,285.6,115.2z M287.3,46.5h0.6v0.3h-0.6V46.5z M290.4,48.2h0.6v0.6h-0.6V48.2z M292.9,41.2h0.6
		c0.4,0,0.6,0.2,0.6,0.6l-0.6,0.8c-0.9-0.2-1.4-0.5-1.4-0.8L292.9,41.2z M293.1,32.6v0.6h-0.6C292.6,32.8,292.8,32.6,293.1,32.6z
		 M292.9,52.1h-0.3 M294.5,33.7h0.3v0.6h-0.3V33.7z M295.1,42.1h0.6v0.3h-0.6V42.1z M297.3,34.3c0,0.3,0.3,0.6,0.8,1.1v0.3H297
		c-0.4,0-0.6-0.2-0.6-0.6C296.5,34.8,296.8,34.6,297.3,34.3z M299.5,37.3c0.4,0.2,0.6,0.3,0.8,0.3v0.6H300c-0.4,0-0.6-0.2-0.6-0.6
		v-0.3H299.5z M312.9,24h0.6v0.3c0,0.4-0.2,0.6-0.6,0.6V24z"/>
	<path d="M302.3,40.9h0.2v0.6h-0.2V40.9z M313.4,18.6c0.2,0.4,0.3,0.8,0.3,1s-0.1,0.5-0.3,0.9l0.3,1.6l-0.3,1.3
		c0.2,0.4,0.3,0.7,0.3,0.9s-0.1,0.3-0.3,0.3l0.3,1.5v4.4c0,1.4-0.1,2.6-0.3,3.8c0.2,1.1,0.3,2.4,0.3,3.8v3.8c0,0.4,0.2,0.6,0.5,0.6
		c0,0.2-0.1,0.4-0.3,0.4l0.3,1.5v3.1l0.8,1.3c-0.5,0-0.8,0.6-1.1,1.9c0.4,0,0.6,0.2,0.6,0.6v0.4h-0.6V53h1.1v0
		c-0.8,0.5-1.3,1.7-1.3,3.8v0.3l0.2,1.9l-0.2,0.6l0.2,0.6c-0.1,2.2-0.3,3.6-0.5,4l0.5,2.5l-0.2,1.9v1.6c0,0.4,0.2,0.6,0.5,0.6
		l-0.3,2.2v3.1c0.1,0.4,0.2,0.6,0.6,0.6c-0.1,0.8-0.3,1.3-0.6,1.3l0.3,0.6l-0.5,1.3l0.2,1.9h-0.2c0.3,0.9,0.5,2.5,0.5,5h-0.3
		c0.4,0.8,0.6,1.6,0.6,2.2h-0.3c0,0.2,0.1,0.3,0.3,0.3l-0.3,1.6c0,0.5,0.1,0.9,0.3,1.3l-0.3,0.6c0.2,1.1,0.3,2,0.3,2.5h-0.3
		c0,0.2,0.1,0.3,0.3,0.3l-0.6,6.3l0.6,1.6c-0.4,1.6-0.6,2.5-0.6,2.8c0.2,0.4,0.3,0.8,0.3,1s-0.1,0.3-0.3,0.3
		c0.3,3.7,0.6,5.8,1.1,6.3l6.2-0.6l0.5,0.3c1.7-0.1,2.5-0.3,2.5-0.6l3.9,0.6c0.3-0.2,0.7-0.3,1.3-0.3v0.3c0.6-0.4,1.5-0.7,2.6-1
		l0.6,0.4l1.5-0.4v0.4l0.5-0.4h2.1l0.8,0.6l0.7-0.6c0.1,0.4,0.2,0.6,0.6,0.6c0.7-0.6,1.3-0.9,1.8-0.9v0.3l1.8-0.6
		c0.4,0.2,0.6,0.3,0.8,0.3c0-0.3,1-0.7,3.1-1.3l0.3,0.6c1.2-0.2,1.8-0.5,1.8-0.6c1,0.2,1.5,0.4,1.5,0.6c1.1-0.3,1.9-0.6,2.5-1
		c0.7,0.2,1.3,0.3,1.8,0.3c1-0.3,1.5-1.2,1.5-2.8c-0.3-0.8-0.5-1.5-0.5-1.9l0.2-0.6c0-0.2-0.1-0.3-0.2-0.3c0.3-1.7,0.5-3.5,0.5-5.4
		c-0.3,0-0.5-0.2-0.5-0.6l0.7-1.5l-0.3-1.6c0.2,0,0.3-0.1,0.3-0.3c-0.6-0.4-1.1-0.6-1.5-0.6s-0.7,0.1-1,0.3
		c-0.9-0.4-1.5-0.6-1.8-0.6c0,0.4-0.2,0.6-0.6,0.6l-0.5-0.3c-0.3,0.2-0.6,0.3-1,0.3l0.3,0.6l-1.3-0.3c-3.4,0-5.1,0.3-5.1,0.9
		c-0.1,0-0.4-0.1-0.7-0.3c-1.8,0.2-3.1,0.3-4.1,0.3H338c-0.3,0-0.7-1.3-1.3-3.8c0.3,0,0.5-0.2,0.5-0.6v-7.5c0-0.4,0.5-0.9,1.5-1.5
		v-0.3h1.3c0.2,0,0.3,0.1,0.3,0.3c0.2,0,0.2-0.1,0.2-0.3l1.3,0.3h0.2l0.8-0.6c0,0.4,0.8,0.7,2.3,0.9c0.3-0.2,0.6-0.3,1.1-0.3v-0.6
		c0-0.4-0.2-0.6-0.6-0.6l0.3-1.6c-0.2-2.1-0.4-3.4-0.5-3.8l0.2-0.6c-0.3-2.5-0.8-3.8-1.3-3.8c-0.9,0-1.7-0.1-2.4-0.3
		c-1.9,0.4-4,0.6-6.1,0.6l-0.3-0.6c0.5-0.8,0.7-1.5,0.7-2.2v-0.3c0-0.5-0.1-0.9-0.3-1.3l0.3-0.6l-0.3-1.6l1.1-7.8l-0.3-1.6h0.3
		c-0.2-0.4-0.3-0.7-0.3-0.9s0.1-0.8,0.3-1.9c-0.2-0.4-0.3-0.8-0.3-1l0.3-0.6l-0.3-0.6c0.2-1.5,0.4-2.4,0.6-2.8
		c-0.2-0.8-0.4-1.6-0.8-2.2v-1.3l0.5-0.9l-0.3-1.9c0.2-0.4,0.3-0.9,0.3-1.6l-0.5-0.3c0.3-5.4,0.9-8.1,1.8-8.1c0.5,0,0.8-0.2,0.8-0.6
		l1.3,0.3h0.3l0.5-0.3c0.1,0.4,0.2,0.6,0.6,0.6l1.3-1l1.8,0.3l1.5-0.3l0.3,0.6l1.5-0.9h0.6l1.8,1.3c1-0.3,1.6-1,1.8-1.9l-0.3-0.6
		l0.5-1c-0.5-3-0.8-4.7-0.8-5.3l0.3-0.6c-0.2-0.4-0.3-0.7-0.3-1h0.3l-0.3-0.6l0.3-0.6l-0.3-1.9l-0.5,0.3c-0.3-0.2-0.7-0.3-1.1-0.3
		v0.6c-0.4-0.4-1.3-0.7-2.8-0.9v0.6h-0.2V19c-0.7,0-1.7-0.1-2.8-0.4c-0.4,0.2-0.6,0.4-0.8,0.4l-1-0.6c-1.5,0.2-2.6,0.3-3.3,0.3
		l-1.3-0.3c-0.3,0.2-1.1,0.4-2.3,0.6c0-0.2-0.1-0.4-0.3-0.4l-0.2,0.6l-2.5-0.3h-1.1l0.2,0.6h-0.2c-0.2,0-0.3-0.1-0.3-0.3
		c-0.2,0-0.3,0.1-0.3,0.3c-3.4-0.4-5.7-0.6-7-0.6c0,0.2-0.1,0.3-0.2,0.3c0-0.8-2.2-1.4-6.5-1.9h-2.5C314,17.4,313.5,17.8,313.4,18.6
		z M323.4,39.9h0.6c0,0.4-0.2,0.6-0.6,0.6V39.9z M334.2,20.2h0.2c0,0.2,0.1,0.5,0.3,0.9c-0.2,0-0.3,0.1-0.3,0.4
		c-0.3-0.2-0.6-0.4-1-0.4v-0.6h0.2l0.6,0.3L334.2,20.2L334.2,20.2z M339.1,57.1c0,0.4,0.2,0.6,0.5,0.6v-0.6H339.1z M339.1,70.9v0.6
		h0.3v-0.6H339.1z M339.8,102.2h0.6v0.3h-0.6V102.2z M344.2,19h0.7v0.6h-0.2C344.4,19.6,344.2,19.4,344.2,19z"/>
	<path d="M395.5,34.5l1.4,1.1h0.3l-0.6-1.1c0.2,0,0.5,0.1,0.8,0.3l0.6-0.3c0.4,0,1,0.3,1.7,0.8l0.6-0.3c0,0.5,0.7,0.9,2.2,1.1v-0.6
		h0.6c0,0.2-0.1,0.3-0.3,0.3c0,0.4,0.2,0.6,0.6,0.6h0.8l0.6-0.3c0,0.4,0.1,0.8,0.3,1.1c2.4,0,3.6,0.8,3.6,2.5
		c1.2,0.3,2.2,1.7,3.1,4.2c0,0.4-0.3,0.6-0.8,0.6V45c0.7,0,1.1,0.2,1.1,0.6l-0.3,0.6c0.4,0,0.6,0.2,0.6,0.6v1.9
		c-1.1,0-1.7,0.2-1.7,0.6v0.3c0.4,0,0.9-0.2,1.7-0.6h0.3l-0.8,1.1v0.3c0.2,0,0.8,0.4,1.7,1.1L413,52v1.7h-0.3
		c-0.3,0-0.5-0.2-0.6-0.6l-0.6,0.3c0.9,1.1,1.4,1.8,1.4,1.9l-0.3,1.4h0.3v0.8c0,0.2,0.1,0.5,0.3,0.8c-0.2,0-0.4,0.3-0.6,0.8H412
		v-0.3h0.6l-0.3-0.6l-0.8,0.6c0.5,0.9,0.9,1.4,1.1,1.4l0.6-0.3c0,0.2,0.1,0.3,0.3,0.3c0,0.2-0.1,0.5-0.3,0.8c0,0.4,0.3,0.6,0.8,0.6
		V62c-0.3,0-0.6,0.2-1.1,0.6h-0.8l0.3-0.6v-0.3l-1.1,0.8l0.3,0.6h-0.3c-0.6-0.3-0.8-0.6-0.8-0.8c-0.3,0-0.5,0.2-0.6,0.6l0.3,0.6
		c-0.2,0-0.5,0.1-0.8,0.3c-0.2,0-0.3-0.3-0.3-0.8h-0.6l-0.6,0.3l1.1,1.4c-0.4,0-0.9-0.2-1.7-0.6c-0.2,0.4-0.3,0.6-0.3,0.8l-1.7-1.7
		v-0.6c0-0.3,0.2-0.5,0.6-0.6c0-0.2-0.1-0.5-0.3-0.8c0-0.2,0.1-0.5,0.3-0.8c-0.2,0-0.5,0.1-0.8,0.3c-0.6-0.6-1.1-0.8-1.4-0.8
		c0-0.2,0.1-0.3,0.3-0.3c0-0.1-0.2-0.7-0.6-1.7c0-0.5,0.2-1.1,0.6-1.7c-0.3,0-0.5-0.2-0.6-0.6v-0.3c0.6,0,0.8-0.2,0.8-0.6
		c-0.6-0.9-0.8-1.6-0.8-2.2l0.3-0.6c-0.2,0-0.5-0.5-0.8-1.4h0.8c0.3,0,0.6,0.4,0.8,1.1l1.4-0.3c0.4,0.6,0.7,0.8,0.8,0.8h0.3
		c-0.1-0.6-0.6-1.2-1.4-1.9l-0.6,0.3h0c-0.9-0.4-1.4-0.7-1.4-0.8c-1.7-0.9-2.8-1.7-3.3-2.2c0-0.8-0.6-1.4-1.9-1.7l-2.5-1.4
		c-0.2,0-0.5,0.1-0.8,0.3c-0.4,0-0.6-0.3-0.6-0.8h-0.6c-0.3,0-0.5,0.2-0.6,0.6v0.3h0.3l0.6-0.3l0.3,0.6c-0.7,0.2-1,0.3-1.1,0.3v0.3
		l0.3,0.6c-0.4,0-0.8,0.1-1.1,0.3l-0.8-0.6h-0.3l-1.7,1.4l0.3,0.6c-1.7,0.4-2.5,0.8-2.5,1.4c-0.2,0-0.3-0.1-0.3-0.3
		c-0.7,0-1.4,0.5-1.9,1.4l-1.1-0.6c0,0.2-0.1,0.3-0.3,0.3c0,0.2,0.1,0.3,0.3,0.3c0,0.3-0.4,0.6-1.1,0.8c0-0.2-0.1-0.3-0.3-0.3h-0.3
		c-0.2,1-0.3,1.5-0.3,1.7l-1.1-0.6c-0.2,0-0.3,0.2-0.3,0.6l-0.6-0.3H380v0.8l0.6,0.8c-0.7,1.1-1.2,1.6-1.7,1.7
		c0-0.3-0.2-0.5-0.6-0.6c-0.3,0-0.6,0.4-0.8,1.1c0,0.4,0.2,0.6,0.6,0.6c0,0.2-0.1,0.3-0.3,0.3c0.4,0.8,0.6,1.4,0.6,1.7
		c-0.4,0-0.8,0.1-1.1,0.3l0.3,0.6V60h-0.3l-0.6-0.3V60l1.1,1.4c-0.2,0-0.3,0.1-0.3,0.3V62l0.3,0.6c-0.3,0-0.5,0.2-0.6,0.6
		c1.1,0.9,1.7,1.5,1.7,1.7c0,0.4-0.2,0.6-0.6,0.6l0.6,1.4c-0.2,0-0.3,0.1-0.3,0.3l0.3,0.6l-0.6,0.3c0.4,0.7,0.8,1.1,1.4,1.1
		c0,0.4-0.1,0.8-0.3,1.1l0.8,1.7v0h-1.1v0.3c0.9,0.1,1.4,0.3,1.4,0.8c1.1,0.6,1.7,1,1.7,1.4c-0.2,0-0.3,0.1-0.3,0.3v0.3l1.4-0.3h0.3
		v0.3l-0.3,0.6l0.6,0.3v0.3c-0.6-0.4-1.1-0.6-1.7-0.6h-0.8V76c0,0.3,0.5,0.6,1.4,0.8l0.6-0.3c0.9,0.6,1.4,0.9,1.4,1.1h-0.6v0.6h0.3
		l0.8-0.6h0.3c0.5,0.9,1.2,1.4,2.2,1.4l-0.3,0.6v0.3c0.9,0,1.4,0.4,1.4,1.1c0.2,0,0.3-0.1,0.3-0.3l0.6,0.3h0.3v-0.6h0.3
		c0,0.4,0.4,0.8,1.1,1.1l-0.3,0.6c0.7,0.6,1.1,1,1.1,1.4c0.2,0,0.3-0.1,0.3-0.3l0.8,0.6h0.3v-0.6h0.6c0,0.5,1,1.3,3.1,2.2
		c0.8,0.3,1.6,1.1,2.2,2.2l1.4-0.3l0.3,0.6c0.9,1.3,1.4,2,1.4,2.2c2.6,1.7,3.9,2.8,3.9,3.3c0.2,0,0.3-0.1,0.3-0.3l0.6,0.3v0.8
		c0.3,0.7,0.6,1.1,0.8,1.1c0,0.3,0.5,0.9,1.4,1.9c0,0.3-0.2,0.8-0.6,1.4v0.3h0.8v-0.6h0.3l0.6,0.3c0,0.2-0.1,0.3-0.3,0.3
		c0.6,1.5,1.1,2.2,1.4,2.2c0,0.2-0.1,0.3-0.3,0.3c0,0.3,0.2,0.8,0.6,1.4l-0.6,1.1l0.3,0.6l-0.3,0.6c0,0.4,0.2,0.6,0.6,0.6
		c-0.3,0.6-0.9,1.1-1.7,1.4c0-0.2-0.1-0.3-0.3-0.3h-0.3v0.3c0,0.3,0.5,0.6,1.4,0.8l0.6-0.3l0.3,0.6l-0.3,0.6c0.3,0,0.6,0.5,0.8,1.4
		l-0.3,0.6l0.3,0.6l-0.6-0.3v0.3l0.6,0.8h-0.6v0.6h0.6c0,0.4-0.5,0.7-1.4,0.8v1.7c-0.7,0.1-1.1,0.4-1.1,0.8l0.6,0.8l-1.7,1.9
		l0.3,0.6c-0.2,0-0.4,0.3-0.6,0.8l-0.6-0.3h-0.3c0,0.2,0.1,0.5,0.3,0.8c-1.1,0.7-1.7,1.3-1.7,1.7l-0.8-0.6c0,0.2,0.1,0.5,0.3,0.8
		c0,0.4-0.4,0.6-1.1,0.6v0.3l0.3,0.6h-0.3c-0.7,0.9-1.1,1.4-1.4,1.4c-0.3-0.2-0.7-0.3-1.1-0.3v0.8l0.3,0.6h-0.3l-1.9-0.3v1.1
		l-0.6-0.3l-0.6,0.3v-0.3c-0.4,0-0.9,0.3-1.7,0.8c-0.8-0.7-1.4-1.1-1.7-1.1c-0.2,0.3-0.3,0.8-0.3,1.4l-0.6-0.3h-0.3v0.6
		c-0.3,0-0.5-0.2-0.6-0.6v-0.3h0.6v-0.8c-0.4,0-0.9,0.2-1.7,0.6l0.3,1.4v0.3c-0.6,0-1.1-0.1-1.4-0.3l-1.7,0.3h-0.8l-1.4-0.3v0.6
		h-0.6c0-0.4-0.1-0.8-0.3-1.1c0.2,0,0.4-0.3,0.6-0.8v-0.3l-0.6,0.3h-0.3v-0.6h-0.6c-0.6,0.6-0.8,1.2-0.8,1.7h-1.1V128l-1.4,0.3
		c0-0.2-0.1-0.5-0.3-0.8c-0.2,0-0.3,0.1-0.3,0.3l-0.6-0.3H380l-1.4-0.3c-1.5-0.8-2.2-1.5-2.2-2.2h-0.6v0.6H375v-0.3
		c-3.2-2.6-4.7-4.2-4.7-4.7c0.2,0,0.4-0.3,0.6-0.8c-0.5,0-0.7-0.4-0.8-1.1l0.3-0.6v-0.6c-0.2,0-0.3,0.1-0.3,0.3
		c-0.3,0-0.5-0.2-0.6-0.6h0.3c0-1.1-0.3-1.7-0.8-1.7c-0.2-2.8-0.5-4.4-0.8-5h0.3l-0.6-0.8c0-0.3,0.4-0.6,1.1-0.8
		c0-0.4-0.4-0.6-1.1-0.6l0.6-0.8c0-0.3-0.2-0.5-0.6-0.6c0-0.3,0.2-0.5,0.6-0.6l-1.1-1.7v-0.8c0.8,0,1.4-0.1,1.7-0.3
		c0,0.2,0.1,0.3,0.3,0.3h0.6l0.6-0.3c0,0.2,0.4,0.4,1.1,0.6v-0.3c0.7,0,1.1,0.3,1.1,0.8h0.6c0.4,0,0.6-0.2,0.6-0.6
		c0.6,0.6,1.1,0.8,1.4,0.8v0.6h-0.6v0.3c0.4,0,0.9,0.5,1.4,1.4v0.6l-0.3,1.4l0.6,0.3c0-0.6,0.2-0.8,0.6-0.8h0.3
		c0,0.5,0.2,0.9,0.6,1.4v0.6h-0.6v0.3c0.6,0,1.1,0.5,1.7,1.4v-0.6h1.4v0.3c0,0.4-0.2,0.6-0.6,0.6c0,0.4,0.2,0.6,0.6,0.6h0.3l0.6-0.3
		c0,0.2,0.3,0.4,0.8,0.6v0.6h-0.3v-0.6h-0.6l0.3,1.1h0.8l0.6-0.3c0,0.2,0.1,0.3,0.3,0.3l0.6-0.3c0,0.7,0.8,1.1,2.5,1.1l-0.3,0.6v0.3
		h1.1l0.6-0.3c0,0.2,0.3,0.4,0.8,0.6c0.2,0,0.3-0.2,0.3-0.6h0.6c0.2,1.1,0.6,1.7,1.4,1.7l0.3-0.6c0-0.4-0.3-0.6-0.8-0.6v-0.3h0.3
		l0.6,0.3l0.6-0.3c0.4,0,0.6,0.2,0.6,0.6c1.2-0.4,1.9-0.6,2.2-0.6l1.4,0.3c0-0.4,0.4-0.8,1.1-1.4c0.2,0,0.3,0.1,0.3,0.3l2.2-1.4
		l-0.3-0.6h1.1v-0.3h-0.6c0-0.3,0.2-0.5,0.6-0.6v0.6h0.6v-0.3c0-0.3-0.2-0.5-0.6-0.6c0.2-1.6,0.6-2.7,1.1-3.3v-0.3l-0.3-0.6h0.3
		c0-0.4-0.1-0.8-0.3-1.1c0-2.6-0.7-3.9-1.9-3.9l0.3-0.6c-0.4-0.4-0.6-1-0.6-1.7H398l-0.6,0.3c0-0.2,0.1-0.5,0.3-0.8
		c0-0.2-0.1-0.5-0.3-0.8c0.2,0,0.3-0.1,0.3-0.3s-0.4-0.6-1.1-1.1c-0.7-1.9-1.7-2.8-2.8-2.8v-0.3h0.6v-0.3l-0.3-0.6
		c-1.1,0.6-1.7,1-1.7,1.4h-0.3c-3.8-2.8-6.1-4.2-7-4.2c0-0.2,0.1-0.3,0.3-0.3c-0.9-1-1.4-1.6-1.4-1.7h-0.8c-1.1-0.5-1.7-0.9-1.7-1.1
		c-0.2,0-0.3,0.1-0.3,0.3l-0.8-0.6l0.3-0.6l-0.6-0.8c-0.4,0-0.6,0.3-0.6,0.8c-0.4-0.2-0.6-0.3-0.8-0.3l0.3-0.6
		c-1.3-1.1-2.4-2.1-3.3-3.1c0-0.2,0.1-0.5,0.3-0.8l-0.3-1.1c-1.3-0.3-1.9-0.6-1.9-1.1l0.3-0.6c-1.1-1.1-2.4-2.8-3.9-5
		c0-0.2,0.1-0.5,0.3-0.8c0-0.8-0.3-1.7-0.8-2.5c0.3,0,0.7-0.2,1.1-0.6L370,69v-0.8h0.8v-0.8l-0.6,0.3c0-0.4-0.1-0.8-0.3-1.1h0.8
		l1.4,0.3v-0.3c0-0.6-0.9-1-2.8-1.1v-0.3l1.4-0.3v-0.3l-0.6-0.8l-0.6,0.3h-0.3v-0.3c0-0.3,0.2-0.5,0.6-0.6l-0.3-1.4v-0.3h0.8v-0.3
		l-0.6-0.8c0-0.4,0.3-0.6,0.8-0.6l-0.3-0.6v-0.8c0-0.3,0.2-0.5,0.6-0.6c0-0.2-0.1-0.3-0.3-0.3c0-0.6,0.5-0.8,1.4-0.8
		c-0.7-0.9-1.1-1.4-1.4-1.4c0-2.2,0.6-3.3,1.7-3.3v0c-0.5,0-0.7-0.4-0.8-1.1c0.4,0,0.6-0.2,0.6-0.6l-0.6-0.8
		c0.9-1.5,1.7-2.2,2.2-2.2V47l-0.3-0.6c0.2,0,0.5,0.1,0.8,0.3l0.8-0.6l-0.3-0.6c0.5-0.7,1-1.1,1.4-1.1c0-1.3,0.7-1.9,1.9-1.9
		c0.2-0.8,0.9-1.4,1.9-1.7c1.5-1.3,2.6-1.9,3.3-1.9c0-0.9,0.7-1.6,2.2-1.9l1.1,0.3c0.4-0.7,0.7-1.1,0.8-1.1h1.1l0.8,0.6l0.6-0.3
		l-0.3-0.6h0.6v0.8h0.6l-0.3-1.4c0.7,0,1.1-0.1,1.1-0.3C391.9,34.8,393.1,34.6,395.5,34.5z M370.2,62.8h0.6v-0.3h-0.6V62.8z
		 M370.8,58.9c0,0.4,0.2,0.6,0.6,0.6h1.1c0-0.3-0.2-0.5-0.6-0.6l-0.6,0.3v-0.6h-0.6v0.3H370.8z M371.1,61.2h0.8v-0.6h-0.8V61.2z
		 M371.6,68.9h0.3c0-0.3-0.2-0.5-0.6-0.6H371C371.1,68.8,371.2,68.9,371.6,68.9z M371.6,55.6h0.3V55h-0.3V55.6z M372.4,109.5
		l0.6-0.3c-0.3-0.6-0.6-0.8-0.8-0.8h-0.6L372.4,109.5z M371.9,72h0.3v-0.6h-0.3V72z M372.2,63.9c0,0.4,0.2,0.6,0.6,0.6h0.3v-0.3
		c0-0.3-0.2-0.5-0.6-0.6h-0.3V63.9z M372.2,65.9h0.6v-0.3h-0.6V65.9z M372.4,52h0.6c0-0.3-0.2-0.5-0.6-0.6V52z M372.4,59.8l0.3,0.6
		c0.3,0,0.8-0.2,1.4-0.6l0.3,0.6V61l-0.3,0.6l-0.8-0.6l-0.6,0.3l0.6,1.1c0.3,0,1-0.4,1.9-1.1v-0.6h-0.6c0-0.2,0.1-0.3,0.3-0.3
		c-0.9-0.8-1.4-1.5-1.4-1.9H373C373,58.7,372.8,59.2,372.4,59.8z M372.4,70.6h0.8V70h-0.8V70.6z M372.7,117.3h0.6V117h-0.6V117.3z
		 M373,52.3v0.3h0.6l0.6-0.3c0-0.3-0.2-0.5-0.6-0.6C373.2,51.7,373.1,51.9,373,52.3z M374.1,65.9c-0.3,0-0.6,0.2-1.1,0.6l0.3,0.6
		c0.4-0.4,1-0.6,1.7-0.6v-0.6c-0.5-0.9-0.8-1.4-1.1-1.4h-0.3C373.6,64.8,373.7,65.3,374.1,65.9z M373,75.9c0,0.4,0.2,0.6,0.6,0.6
		v-1.1H373V75.9z M373,112.6h0.6V112H373V112.6z M373.8,114v-0.6h-0.6C373.3,113.8,373.5,114,373.8,114z M373.3,115.9
		c0,0.4,0.2,0.6,0.6,0.6h0.3c-0.3-0.6-0.6-0.8-0.8-0.8v0.2H373.3z M373.6,111.2c0,0.4,0.2,0.6,0.6,0.6l0.6-0.3
		c0-0.3-0.2-0.5-0.6-0.6h-0.6V111.2z M373.6,121.8c0,0.4,0.2,0.6,0.6,0.6h0.6v-0.3c0-0.3-0.2-0.5-0.6-0.6L373.6,121.8z M373.8,78.4
		c0,0.4,0.2,0.6,0.6,0.6s0.6-0.2,0.6-0.6v-0.3h-1.1v0.3H373.8z M373.8,110.7h0.6c0-0.3-0.2-0.5-0.6-0.6V110.7z M374.1,74.5h0.6
		c0.3,0.7,0.9,1.2,1.7,1.4c0.4,0,0.6-0.2,0.6-0.6c0-0.3-0.2-0.5-0.6-0.6h-0.3l-0.6,0.3c0-0.6-0.4-0.9-1.1-1.1h-0.3L374.1,74.5
		L374.1,74.5z M374.1,76.7h0.6v-0.3h-0.6V76.7z M374.4,55.9v0.6l1.1-0.3v-0.8h-0.6C374.6,55.3,374.5,55.5,374.4,55.9z M374.9,80.6
		h0.3V80h-0.8C374.4,80.4,374.6,80.6,374.9,80.6z M374.7,107.6l0.6-0.3c0-0.3-0.2-0.5-0.6-0.6V107.6z M374.9,61.7
		c0,0.4,0.2,0.6,0.6,0.6h0.3V62l-0.3-0.6L374.9,61.7z M374.9,74l0.6-0.3c0-0.3-0.2-0.5-0.6-0.6V74z M375.5,122.3l0.3,0.6
		c-0.6,0-0.8,0.2-0.8,0.6s0.2,0.6,0.6,0.6h0.3l0.3-1.4c0-0.3-0.2-0.5-0.6-0.6L375.5,122.3L375.5,122.3z M375.2,47.3h0.6V47h-0.6
		V47.3z M375.5,76.7h0.6c0-0.3-0.2-0.5-0.6-0.6V76.7z M376.1,57c0,0.4,0.2,0.6,0.6,0.6h0.3v-0.3c0-0.3-0.2-0.5-0.6-0.6h-0.3V57z
		 M377.2,77.6l1.4,0.3h0.3v-0.6l-1.4-0.3h-0.3V77.6z M378.8,55.9v0.3h-0.6v-0.3H378.8z M378.8,75.6V75h-0.6
		C378.3,75.4,378.5,75.6,378.8,75.6z M378.8,50.9c0,0.4,0.2,0.6,0.6,0.6v-0.8h-0.6V50.9z M378.8,76.2h1.1v-0.6l-0.6,0.3l-0.6-0.3
		v0.6H378.8z M378.8,79.8h0.3v-0.6h-0.3V79.8z M379.1,124.8h0.3v-0.6h-0.3V124.8z M379.7,117.1h0.3v-0.6h-0.3V117.1z M380.2,117.9
		c0,0.4,0.2,0.6,0.6,0.6h0.3v-0.3l-0.3-0.6L380.2,117.9z M380.8,48.6c0.3,0.6,0.6,0.8,0.8,0.8v-0.6l-0.3-0.6L380.8,48.6z
		 M380.8,125.1l0.3,0.6l0.6-0.3c-0.2-0.4-0.3-0.6-0.3-0.8h-0.6V125.1z M381.1,126.5h0.3V126h-0.3V126.5z M381.3,121.2h0.6
		c0-0.3-0.2-0.5-0.6-0.6V121.2z M381.6,41.1h0.6v-0.3h-0.6V41.1z M381.6,125.1h0.8v-0.6h-0.3C381.9,124.6,381.7,124.7,381.6,125.1z
		 M382.5,40.3v-0.6h-0.6C381.9,40.1,382.1,40.3,382.5,40.3z M381.9,85.6h0.3V85h-0.3V85.6z M381.9,116.5l1.4-0.3v-0.3h-0.8
		C382.1,115.9,382,116.1,381.9,116.5z M382.2,45.9h0.3v-0.6h-0.3V45.9z M382.2,86.5h0.6c0-0.3-0.2-0.5-0.6-0.6V86.5z M382.5,41.7
		c0,0.4,0.2,0.6,0.6,0.6l0.6-0.3c0-0.3-0.2-0.5-0.6-0.6L382.5,41.7z M382.7,119h0.6v-0.6h-0.6V119z M383,87.6l0.3,0.6l0.8-0.6
		c0-0.3-0.2-0.5-0.6-0.6H383V87.6z M384.1,45.3h0.6V45h-0.6V45.3z M384.4,39.2h0.3v-0.6h-0.3V39.2z M385.2,126.5h0.6v-0.3h-0.6
		V126.5z M385.8,40.3l0.3,0.6c0.4,0,0.6-0.2,0.6-0.6V40h-0.8v0.3H385.8z M385.8,90.9v0.3h0.6l0.6-0.3c0-0.3-0.2-0.5-0.6-0.6
		C386,90.4,385.9,90.5,385.8,90.9z M386.1,117.3h0.6V117h-0.6V117.3z M386.3,38.9h0.8v-0.6h-0.3C386.6,38.4,386.4,38.5,386.3,38.9z
		 M386.3,118.4c0,0.4,0.2,0.6,0.6,0.6v-0.8h-0.6V118.4z M386.9,127.6v0.3h-0.6v-0.3H386.9z M386.6,122.1h0.6v-0.6
		C386.9,121.5,386.7,121.7,386.6,122.1z M386.9,81.7h0.6v-0.6h-0.6V81.7z M386.9,84.5h0.8V84h-0.8V84.5z M387.7,42v-0.6h-0.6
		C387.2,41.8,387.4,42,387.7,42z M387.5,118.4h0.3v-0.6h-0.3V118.4z M388.6,119.6h0.6v-0.8h-0.6V119.6z M389.7,117.9v0.8h0.3
		c0.6-0.3,0.8-0.6,0.8-0.8c0-0.3-0.2-0.5-0.6-0.6C390.2,117.7,390.1,117.9,389.7,117.9z M390,119.6h0.3V119H390V119.6z M390.5,122.3
		h0.6c0-0.3-0.2-0.5-0.6-0.6H390C390,122.2,390.2,122.3,390.5,122.3z M390,125.7h0.3c0.4,0,0.6-0.2,0.6-0.6H390V125.7z M390.5,84.2
		h0.6l-0.3-1.1h-0.6L390.5,84.2z M390.5,120.7c0,0.4,0.2,0.6,0.6,0.6v-0.8h-0.6V120.7z M391.1,40.6c0,0.4,0.2,0.6,0.6,0.6h0.3v-0.3
		c0-0.3-0.2-0.5-0.6-0.6h-0.3V40.6z M392.2,46.7c0,0.4-0.2,0.6-0.6,0.6H391v-0.6H392.2z M392.2,77.8v0.3h-0.6v-0.3H392.2z
		 M392.5,123.7l1.9,0.6c0.4,0,0.6-0.2,0.6-0.6v-0.3l-2.5-0.3V123.7z M393.3,95.1v0.8l-0.6-0.3C392.7,95.3,392.9,95.1,393.3,95.1z
		 M393.6,39.2h0.6v-0.3h-0.6V39.2z M394.7,95.6l-0.3,0.6c0.7,0,1.1,0.3,1.1,0.8h-1.4v-0.3l0.3-0.6c-0.3,0-0.5-0.2-0.6-0.6
		L394.7,95.6L394.7,95.6z M394.7,45.9v0.6h-0.3v-0.6H394.7z M394.4,121.8h0.3v-0.6h-0.3V121.8z M395,122.9c0.4,0,0.6-0.2,0.6-0.6
		h-0.8L395,122.9z M395,125.7h0.6c0-0.3-0.2-0.5-0.6-0.6V125.7z M395.2,121.8l0.6,0.8l0.6-0.3l-0.6-0.8L395.2,121.8z M395.5,89.2
		h0.6V89h-0.6V89.2z M395.5,125.4h0.3c0.4,0,0.6-0.2,0.6-0.6h-0.8v0.6H395.5z M396.6,122.1h0.6v-0.3h-0.6V122.1z M397.8,45.9v0.3
		h-0.6v-0.3H397.8z M397.2,121.2h0.6v-0.3h-0.6V121.2z M398,99.5h0.6v-0.3H398V99.5z M398.6,37.2h0.6V37h-0.6V37.2z M399.4,82.3v0.6
		h-0.3v-0.6H399.4z M400.5,101.2c0.4,0,0.6-0.2,0.6-0.6h-0.6V101.2z M400.5,113.7h0.3v-0.6h-0.3V113.7z M400.8,122.3
		c0,0.4,0.2,0.6,0.6,0.6h0.6v-0.3c0-0.3-0.2-0.5-0.6-0.6L400.8,122.3z M401.1,47.3c0.8,0,1.4,0.1,1.7,0.3c0-0.2,0.1-0.3,0.3-0.3
		c0-0.3-0.2-0.5-0.6-0.6l-0.6,0.3c0-0.2-0.1-0.3-0.3-0.3H401v0.6H401.1z M401.4,45c0,0.4,0.2,0.6,0.6,0.6h0.3v-0.8h-0.8V45H401.4z
		 M402.2,46.7v-0.6h-0.6C401.6,46.5,401.8,46.7,402.2,46.7z M402.2,98.7h0.6v-0.6h-0.6V98.7z M402.2,109.8c0,0.4,0.2,0.6,0.6,0.6
		h0.3v-0.8h-0.3L402.2,109.8z M405.3,47l0.6-0.8c-1.1-0.7-1.7-1.1-1.7-1.4h-0.3l-0.6,0.3v-0.8h-0.8C402.5,44.9,403.4,45.8,405.3,47z
		 M402.5,119.8h0.6v-0.3h-0.6V119.8z M402.5,121.2h0.8v-0.3h-0.8V121.2z M402.8,124.6h0.3V124h-0.3V124.6z M404.4,61.2
		c0,0.6,0.2,0.8,0.6,0.8l-0.6,1.1c0.2,0,0.5,0.1,0.8,0.3c0,0.4-0.2,0.6-0.6,0.6l0.3,0.6h-0.8c-0.7-1.2-1.1-2.1-1.1-2.5
		c0.6,0,0.8-0.3,0.8-0.8L404.4,61.2L404.4,61.2z M403,99.3c0.4,0.5,0.6,0.8,0.6,1.1h0.6v-0.3c-0.5-0.7-0.8-1.1-1.1-1.1v0.3H403z
		 M403.6,95.9c0.3,0,0.7,0.2,1.1,0.6v-0.3c-0.3-0.6-0.6-0.8-0.8-0.8h-0.3L403.6,95.9L403.6,95.9z M403.6,103.7h0.6v-0.3h-0.6V103.7z
		 M403.9,49.2c0.4,0,0.6-0.2,0.6-0.6h-0.6V49.2z M403.9,104.3v0.3h0.6v-0.8C404.1,103.7,403.9,103.9,403.9,104.3z M404.4,53.7V54
		c0.7-0.5,1.1-0.8,1.1-1.1h-0.3C404.7,53.1,404.4,53.4,404.4,53.7z M404.7,49.8h0.3v-0.6h-0.3V49.8z M404.7,107.3l1.1-0.3v-0.6h-0.3
		C405,106.8,404.7,107,404.7,107.3z M405,43.1h0.6v-0.3H405V43.1z M405,56.4h0.3v-0.6H405V56.4z M405,58.7h0.6v-0.6H405V58.7z
		 M405,97h0.6v-0.3H405V97z M405,103.2c0,0.2,0.1,0.3,0.3,0.3L405,104v0.6c0.2,0,0.5,0.1,0.8,0.3c0.7-0.4,1.1-0.6,1.1-0.8v-0.6
		c0-0.3-0.2-0.5-0.6-0.6L405,103.2z M405.3,45h0.8l-0.3-0.6C405.5,44.5,405.3,44.7,405.3,45z M405.3,48.4c0.3,0,0.7,0.2,1.1,0.6
		v-0.3l-0.6-0.8C405.5,47.8,405.3,48,405.3,48.4z M405.3,98.7h0.6v-0.3h-0.6V98.7z M405.3,109.8c0,0.4,0.2,0.6,0.6,0.6v-0.8
		L405.3,109.8z M406.4,103.7v0.3h-0.8v-0.3H406.4z M405.8,60h0.8l-0.3-0.6C406.1,59.5,405.9,59.7,405.8,60z M406.1,119.3h0.6
		c0-0.3-0.2-0.5-0.6-0.6V119.3z M406.9,104.8h0.3l0.6-0.3c0,0.2,0.1,0.3,0.3,0.3v-0.6H407L406.9,104.8L406.9,104.8z M407.2,61.7h0.6
		v-0.6h-0.6V61.7z M407.5,60.3h0.6v-0.6h-0.6V60.3z M407.5,102.6h0.6v-0.3h-0.6V102.6z M407.8,119h0.3v-0.6h-0.3V119z M408.3,56.7
		c0,0.4,0.2,0.6,0.6,0.6v-0.6l1.1,0.6c0.4,0,0.6-0.2,0.6-0.6c-0.5-0.7-0.8-1.1-1.1-1.1h-0.3C409.2,56.3,408.9,56.7,408.3,56.7z
		 M408.3,110.1l0.3,0.6l1.1-0.3l-0.3-0.6C409.1,110,408.8,110.1,408.3,110.1z M408.6,52h0.6v-0.6h-0.6V52z M408.6,60
		c0.4,0,0.6,0.3,0.6,0.8c0.7,0,1.4-0.1,2.2-0.3V60h-1.7l-0.8-0.6h-0.3L408.6,60L408.6,60z M408.6,107.3h0.3v-0.6h-0.3V107.3z
		 M409.4,42.5h0.6v-0.3c0-0.3-0.2-0.5-0.6-0.6V42.5z M410,104.5c0,0.4,0.2,0.6,0.6,0.6c0-0.2,0.1-0.5,0.3-0.8c0-0.3-0.2-0.5-0.6-0.6
		H410V104.5z M410.8,50.3h0.6V50h-0.6V50.3z M415.3,104.8v0.6H415v-0.6C415,104.8,415.3,104.8,415.3,104.8z"/>
	<path d="M423.2,115.6l0.8,0.2l0.4-0.2c1.6,0.5,2.5,0.9,2.5,1.4l-0.2,0.4h0.6v0.2h-0.4l0.2,0.4c0.1,0,0.2-0.1,0.2-0.2
		c0.3,0.3,0.6,0.4,0.8,0.4c0,0.1-0.1,0.2-0.2,0.2c0.3,0.6,0.5,1,0.8,1l-0.2,0.4l0.4,0.6c-0.1,0-0.3-0.1-0.6-0.2l-0.4,0.2
		c0,0.1,0.1,0.2,0.2,0.2l-0.4,0.6v0.2l0.4-0.2h0.2c0,0.4,0.2,0.6,0.6,0.6v0.8l-0.2,0.4c-0.1,0-0.3-0.1-0.6-0.2
		c-0.4,0-0.6,0.1-0.6,0.4v0.2h1c0,0.7-0.3,1-0.8,1v0.6c0,0.3,0.1,0.4,0.4,0.4l-0.2,0.4c-0.1,0-0.2-0.1-0.2-0.2l-1.2,0.6l0.4,0.6
		c-0.3,0-1,0.3-2.3,1H424c0-0.4-0.1-0.6-0.4-0.6c-0.2,0-0.4,0.1-0.4,0.4c-1.2,0-2.8-1.1-4.7-3.3c-0.3-1.4-0.6-2-0.8-2
		c0.4-1.3,0.6-2,0.6-2.2c0-1.7,1-3.1,3.1-4.1c0.1,0,0.2,0.1,0.2,0.2C422,116.1,422.6,115.8,423.2,115.6z M422.2,127.3h0.2v-0.4h-0.2
		V127.3z M423.2,133.2v0.2h-0.4v-0.2H423.2z M425.4,119.7h0.4v-0.4h-0.4V119.7z M425.8,117h0.4v-0.4h-0.4V117z"/>
</g>
<g>
	<path d="M51,215.9c-1.7,1.8-3.9,2.7-6.5,2.7c-2.5,0-4.6-1-6.1-3c-2.2-2.8-2.8-7.1-2.1-9.6c0.1-0.5,0.6-0.8,1.2-0.7
		c0.5,0.1,0.8,0.7,0.7,1.2c-0.5,1.7-0.2,5.4,1.7,8c1.2,1.5,2.7,2.3,4.6,2.3c2,0,3.7-0.7,5.1-2.2c2.7-2.8,4-8.2,3.7-15.2
		c-0.4-11.1-3.4-15.4-6.7-20.3c-1.4-2.1-2.9-4.3-4.3-7.1c-1.9-3.8-4.3-12.9-1.5-17.4c1.1-1.8,3-2.7,5.3-2.7c2.2,0,3.9,0.7,5.2,2.2
		c2.8,3.3,2,9.1,1.9,9.3c-0.1,0.5-0.6,0.9-1.1,0.8c-0.5-0.1-0.9-0.6-0.8-1.1c0-0.1,0.8-5.2-1.5-7.8c-0.9-1-2.1-1.5-3.8-1.5
		s-3,0.6-3.7,1.9c-2.3,3.6-0.2,11.9,1.6,15.5c1.3,2.7,2.8,4.8,4.2,6.9c3.4,5,6.6,9.7,7.1,21.3C55.5,207,54,212.7,51,215.9z"/>
	<path d="M84.1,217.1c0,0.5-0.4,0.9-0.9,0.9c-3.8,0-7-1.3-9.6-4c-6.9-7.1-7.6-22-7.3-30.3c0.7-28.9,11.3-32,15.9-32
		c0.5,0,0.9,0.4,0.9,0.9s-0.4,0.9-0.9,0.9c-8.3,0-13.5,11.3-14,30.2c-0.2,8,0.4,22.3,6.8,28.9c2.2,2.3,5,3.4,8.2,3.4
		C83.7,216.2,84.1,216.6,84.1,217.1z"/>
	<path d="M117.3,153.1v63.8c0,0.5-0.4,0.9-0.9,0.9s-0.9-0.4-0.9-0.9v-26.2H96.4l0,0v26.2c0,0.5-0.4,0.9-0.9,0.9s-0.9-0.4-0.9-0.9
		v-63.8c0-0.5,0.4-0.9,0.9-0.9s0.9,0.4,0.9,0.9v35.8l0,0h19.1v-35.8c0-0.5,0.4-0.9,0.9-0.9C116.8,152.2,117.3,152.6,117.3,153.1z"/>
	<path d="M154.7,153.2c0,0.4-0.5,39-0.5,64.2c0,0.4-0.3,0.8-0.8,0.9c-0.1,0-0.1,0-0.2,0c-0.4,0-0.7-0.2-0.9-0.6
		c-3.3-7.4-14.3-43.4-18.8-58.1v57.2c0,0.5-0.4,0.9-0.9,0.9s-0.9-0.4-0.9-0.9v-63.6c0-0.5,0.3-0.9,0.8-0.9c0.5-0.1,0.9,0.2,1,0.7
		s13,43.2,18.7,59.3c0.1-25,0.5-58.8,0.5-59.1c0-0.5,0.4-0.9,0.9-0.9l0,0C154.3,152.2,154.7,152.7,154.7,153.2z"/>
	<path d="M170.8,153.1v63.8c0,0.5-0.4,0.9-0.9,0.9s-0.9-0.4-0.9-0.9v-63.8c0-0.5,0.4-0.9,0.9-0.9
		C170.4,152.2,170.8,152.6,170.8,153.1z"/>
	<path d="M209.2,153.9c0,0.5-0.4,1-1,1h-13.4V217c0,0.5-0.4,0.9-0.9,0.9s-0.9-0.4-0.9-0.9v-62.1h-12.2c-0.5,0-1-0.4-1-1
		c0-0.5,0.4-1,1-1h27.5C208.7,152.9,209.2,153.3,209.2,153.9z"/>
	<path d="M241.9,153.9c0,0.5-0.4,1-1,1h-13.4V217c0,0.5-0.4,0.9-0.9,0.9s-0.9-0.4-0.9-0.9v-62.1h-12.2c-0.5,0-1-0.4-1-1
		c0-0.5,0.4-1,1-1H241C241.5,152.9,241.9,153.3,241.9,153.9z"/>
	<path d="M273.8,153.7l-0.1,63.5c0,0.5-0.4,0.9-0.9,0.9s-0.9-0.4-0.9-0.9l0.1-57.9c-2.2,6.6-6.1,18.1-9.1,28.2
		c-0.1,0.4-0.5,0.7-0.9,0.7s-0.8-0.3-0.9-0.6c-2.5-7.5-6.2-20-8.5-27.6l0.5,57.4c0,0.5-0.4,1-0.9,1l0,0c-0.5,0-0.9-0.4-0.9-0.9
		l-0.6-64.1c0-0.5,0.3-0.9,0.8-0.9c0.5-0.1,0.9,0.2,1,0.7c0.1,0.2,5.7,19.3,9.5,31.1c4.4-14.5,10.1-30.6,10.1-30.8
		c0.2-0.4,0.6-0.7,1.1-0.6C273.5,152.8,273.8,153.2,273.8,153.7z"/>
	<path d="M309.3,153.4c0,0.3-1,32.8-1,43.3c0,4.9-0.8,21.1-10.5,21.1c-2.1,0-4-0.8-5.5-2.4c-4.3-4.4-4.8-14.2-4.5-21.5
		c0.4-11,0.4-40.5,0.4-40.8c0-0.5,0.4-0.9,0.9-0.9l0,0c0.5,0,0.9,0.4,0.9,0.9c0,0.3,0,29.8-0.4,40.9c-0.4,9.9,1,17,4,20.1
		c1.1,1.2,2.5,1.8,4.1,1.8c6.3,0,8.6-9.9,8.6-19.2c0-10.5,1-43,1-43.3c0-0.5,0.4-0.9,1-0.9C308.9,152.5,309.3,152.9,309.3,153.4z"/>
	<path d="M334.3,215.9c-1.7,1.8-3.9,2.7-6.5,2.7c-2.5,0-4.6-1-6.1-3c-2.2-2.8-2.8-7.1-2.1-9.6c0.1-0.5,0.6-0.8,1.2-0.7
		c0.5,0.1,0.8,0.7,0.7,1.2c-0.5,1.7-0.2,5.4,1.7,8c1.2,1.5,2.7,2.3,4.6,2.3c2,0,3.7-0.7,5.1-2.2c2.7-2.8,4-8.2,3.7-15.2
		c-0.4-11.1-3.4-15.4-6.7-20.3c-1.4-2.1-2.9-4.3-4.3-7.1c-1.9-3.8-4.3-12.9-1.5-17.4c1.1-1.8,3-2.7,5.3-2.7c2.2,0,3.9,0.7,5.2,2.2
		c2.8,3.3,2,9.1,1.9,9.3c-0.1,0.5-0.6,0.9-1.1,0.8c-0.5-0.1-0.9-0.6-0.8-1.1c0-0.1,0.8-5.2-1.5-7.8c-0.9-1-2.1-1.5-3.8-1.5
		c-1.7,0-3,0.6-3.7,1.9c-2.3,3.6-0.2,11.9,1.6,15.5c1.3,2.7,2.8,4.8,4.2,6.9c3.4,5,6.6,9.7,7.1,21.3
		C338.8,207,337.4,212.7,334.3,215.9z"/>
	<path d="M374.4,153.9c0,0.5-0.4,1-1,1H360V217c0,0.5-0.4,0.9-0.9,0.9s-0.9-0.4-0.9-0.9v-62.1H346c-0.5,0-1-0.4-1-1c0-0.5,0.4-1,1-1
		h27.5C374,152.9,374.4,153.3,374.4,153.9z"/>
	<path d="M398.9,216.8c0,0.5-0.4,0.9-0.9,0.9h-13.8c-0.5,0-0.9-0.4-0.9-0.9v-63c0-0.5,0.4-0.9,0.9-0.9H398c0.5,0,0.9,0.4,0.9,0.9
		s-0.4,0.9-0.9,0.9h-12.9V187c0.1,0,0.2-0.1,0.4-0.1h5.2c0.5,0,0.9,0.4,0.9,0.9s-0.4,0.9-0.9,0.9h-5.2c-0.1,0-0.2,0-0.4-0.1v27H398
		C398.5,215.9,398.9,216.3,398.9,216.8z"/>
	<path d="M425.8,217.4c-0.5,0.1-1-0.2-1.2-0.7c-4.1-15.2-12.8-16.2-13.1-16.2h-0.1V217c0,0.5-0.4,0.9-0.9,0.9s-0.9-0.4-0.9-0.9
		v-63.8c0-0.5,0.3-0.9,0.8-0.9c0.1,0,3.3-0.5,6.7,2c3.8,2.8,6.3,8.2,7.3,15.9c0,18.4-5.7,27.4-9.7,29.3c3.4,1.5,8.9,5.6,12,16.8
		C426.6,216.8,426.3,217.3,425.8,217.4z M412.9,198c2.8,0,9.5-8,9.5-27.7c-0.9-7-3.2-12.1-6.5-14.5c-1.8-1.3-3.5-1.6-4.5-1.7v44.6
		l1-0.5C412.6,198,412.7,198,412.9,198z"/>
</g>
<g>
	<path d="M437.2,41.2c-2.9,0-5.4-1-7.3-3s-2.9-4.6-2.9-7.6V29c0-2.9,1-5.4,2.9-7.4s4.3-3,7.2-3c2.9,0,5.3,1,7.2,3
		c1.9,2,2.9,4.5,2.9,7.4v1.6c0,3.1-1,5.6-2.9,7.6C442.5,40.2,440.1,41.2,437.2,41.2z M445.4,30.5v-1.6c0-2.3-0.8-4.3-2.3-5.9
		c-1.6-1.6-3.5-2.4-5.8-2.4c-1.6,0-3,0.4-4.2,1.1c-1.2,0.7-2.2,1.7-2.9,3c-0.7,1.3-1,2.6-1,4.2v1.6c0,2.5,0.8,4.5,2.3,6.1
		s3.5,2.4,5.8,2.4c2.4,0,4.3-0.8,5.9-2.4C444.6,35.1,445.4,33,445.4,30.5z M435.5,35.2h-1.9v-11h4.5c0.9,0,1.6,0.3,2.2,0.9
		c0.6,0.6,0.9,1.4,0.9,2.3c0,0.8-0.2,1.5-0.6,2.1s-0.9,1-1.4,1.2l2.3,4.5h-2.3l-2-4.2h-1.8L435.5,35.2L435.5,35.2z M435.5,25.7v3.7
		h1.6c1.4,0,2.2-0.6,2.2-1.9c0-0.6-0.2-1-0.5-1.3s-0.8-0.5-1.4-0.5H435.5z"/>
</g>
</svg>
