<svg version="1" xmlns="http://www.w3.org/2000/svg" width="145" height="44" viewBox="-22.5 28 145 44"><g fill="#B72522"><path d="M62.182 39.821h-2.408c-.793 0-1.547.612-1.655 1.403l-1.547 9.855c-.467 3.848-2.661 3.848-4.64 3.848-2.123 0-3.273-1.006-3.273-2.158 0-1.475.648-4.314 1.008-7.12.179-1.511.61-3.848.646-4.244.037-.396.072-.468 0-.756-.071-.359-.467-.863-1.223-.827h-6.438l.936-6.474c.072-.54-.288-.972-.828-1.008h-3.2c-.54 0-1.187.432-1.258.971l-1.008 6.475h-4.282l.935-6.438c.071-.54-.288-.972-.864-1.008h-3.345c-.54 0-1.043.432-1.115.971l-.936 6.475h-2.301a1.19 1.19 0 0 0-1.151.935l-.504 3.345c-.072.54.288 1.007.828 1.007h2.266l-2.158 14.098c-.072.539.252 1.008.792 1.008h3.417c.54 0 1.043-.432 1.115-.969l2.123-14.102h4.352L34.307 59.21c-.072.537.288 1.004.828 1.004h3.38c.54 0 1.043-.432 1.115-.969l2.194-14.1h2.518c-.396 3.093-.935 5.647-.971 7.409 0 3.74 2.697 7.66 8.021 7.66 1.439 0 2.878-.18 4.029-.539.036 3.957-2.914 4.785-4.353 4.785-1.691 0-3.057-1.08-3.633-2.051l-.359-.648c-.396-.789-.647-1.078-1.476-1.078h-1.546c-.791 0-1.69.145-1.619 1.367.216 3.344 3.993 6.979 8.633 6.979 2.051 0 3.632-.576 5.144-1.547 1.547-1.08 2.698-2.195 3.598-4.713.467-1.33.755-3.129 1.114-5.467l2.411-15.97c.216-.863-.324-1.511-1.153-1.511zM-7.092 39.821c-6.727-.144-10.502 5.216-11.114 9.927l-3.057 20.036c-.108.789.431 1.545 1.222 1.58h2.41c.791 0 1.547-.609 1.69-1.438l2.95-19.531c.252-1.726 1.691-4.855 4.964-5.287.144-.036.287-.036.431-.036h.288A4.935 4.935 0 0 1-2.38 50c0 2.446-1.799 4.387-4.137 4.784-.252.072-.54.107-.827.107h-.036c-1.258.07-2.409.035-3.128-.18-.972-.287-1.655 0-1.979.719l-1.008 2.268c-.323.719-.035 1.547.648 1.871 0 0 .396.141.611.213 1.188.361 2.842.432 4.784.361h.036c5.97-.18 9.855-5.541 9.711-10.431-.107-5.899-3.812-9.783-9.387-9.891zM14.524 39.821c-3.237-.108-6.042.971-8.165 3.129-2.626 2.662-3.417 6.186-3.31 8.595.144 3.094 1.224 5.432 3.202 6.941 1.475 1.117 3.381 1.691 5.683 1.691 1.151 0 2.411-.145 3.741-.432 0 0 .288-.072.539-.178.756-.252.756-1.117.647-1.908l-.288-2.193c-.071-.576-.719-.9-1.438-.865-2.338.469-5.036.434-5.683-.287-.576-.646-1.043-1.51-1.116-3.021-.072-1.329.467-3.272 1.799-4.639.144-.144.288-.287.467-.396a4.787 4.787 0 0 1 3.129-1.151 4.82 4.82 0 0 1 4.82 4.82c0 .181 0 .396-.036.577L17.4 58.022l-.107.719c-.108.791.395 1.473 1.186 1.473h2.518c.791 0 1.51-.609 1.618-1.436l.036-.291 1.151-7.443c.323-2.23-.36-5.576-2.374-7.985-1.688-2.051-4.062-3.165-6.904-3.238z"/></g><path fill="#4F1D29" d="M111.17 39.821c-4.17 0-7.767 2.626-9.243 6.33-1.474-3.704-5.071-6.33-9.243-6.33-3.164 0-5.972 1.511-7.806 3.849l2.051-13.561a1.228 1.228 0 0 0-1.223-1.475h-2.41c-.792 0-1.547.611-1.688 1.439l-2.915 19.494c-.071.684-.54 2.446-1.799 3.741-1.08 1.188-2.66 1.836-4.314 1.547-2.592-.432-4.318-2.986-3.886-5.647.431-2.554 2.697-4.316 5.143-4.101.973.037 1.763.18 2.376.36.97.288 1.653 0 1.978-.72l.97-2.157c.323-.72.038-1.547-.646-1.871 0 0-.396-.144-.612-.215a15.393 15.393 0 0 0-4.748-.648h-.035c-5.97.18-9.854 5.503-9.712 10.431.146 5.936 3.849 9.82 9.459 9.926 5.325.109 8.85-3.631 10.36-7.229 1.259 4.172 5.034 7.229 9.567 7.229 4.171 0 7.769-2.623 9.243-6.33 1.476 3.707 5.071 6.33 9.244 6.33 5.502 0 9.998-4.566 9.998-10.178-.109-5.681-4.568-10.214-10.109-10.214zM97.216 50.792c-.468 2.66-2.878 4.496-5.396 4.064-2.517-.432-4.208-2.951-3.74-5.647.469-2.662 2.878-4.496 5.396-4.064s4.171 2.949 3.74 5.647zm18.525 0c-.469 2.66-2.879 4.496-5.396 4.064-2.521-.432-4.209-2.951-3.741-5.647.467-2.662 2.877-4.496 5.395-4.064 2.519.432 4.208 2.949 3.742 5.647z"/></svg>